G04 #@! TF.FileFunction,Copper,L2,Bot,Signal*
%FSLAX46Y46*%
G04 Gerber Fmt 4.6, Leading zero omitted, Abs format (unit mm)*
G04 Created by KiCad (PCBNEW 4.0.7) date 05/31/18 17:41:53*
%MOMM*%
%LPD*%
G01*
G04 APERTURE LIST*
%ADD10C,0.100000*%
%ADD11R,3.000000X3.000000*%
%ADD12C,3.000000*%
%ADD13O,2.500000X3.200000*%
%ADD14O,3.200000X2.500000*%
%ADD15R,1.700000X1.700000*%
%ADD16O,1.700000X1.700000*%
%ADD17C,0.762000*%
%ADD18C,0.400000*%
G04 APERTURE END LIST*
D10*
D11*
X67310000Y-99060000D03*
D12*
X72390000Y-99060000D03*
X77470000Y-99060000D03*
D11*
X90170000Y-99060000D03*
D12*
X95250000Y-99060000D03*
X100330000Y-99060000D03*
D11*
X118110000Y-99060000D03*
D12*
X123190000Y-99060000D03*
X128270000Y-99060000D03*
D11*
X140970000Y-99060000D03*
D12*
X146050000Y-99060000D03*
X151130000Y-99060000D03*
D13*
X66040000Y-76200000D03*
X78740000Y-76200000D03*
D14*
X72390000Y-73660000D03*
D13*
X78740000Y-88900000D03*
X66040000Y-88900000D03*
X88900000Y-76200000D03*
X101600000Y-76200000D03*
D14*
X95250000Y-73660000D03*
D13*
X101600000Y-88900000D03*
X88900000Y-88900000D03*
X116840000Y-76200000D03*
X129540000Y-76200000D03*
D14*
X123190000Y-73660000D03*
D13*
X129540000Y-88900000D03*
X116840000Y-88900000D03*
X139700000Y-76200000D03*
X152400000Y-76200000D03*
D14*
X146050000Y-73660000D03*
D13*
X152400000Y-88900000D03*
X139700000Y-88900000D03*
D15*
X128270000Y-57150000D03*
D16*
X130810000Y-57150000D03*
X133350000Y-57150000D03*
X135890000Y-57150000D03*
X138430000Y-57150000D03*
X140970000Y-57150000D03*
D15*
X77470000Y-57150000D03*
D16*
X80010000Y-57150000D03*
X82550000Y-57150000D03*
X85090000Y-57150000D03*
X87630000Y-57150000D03*
X90170000Y-57150000D03*
D17*
X111760000Y-68580000D03*
X134620000Y-67945000D03*
X84455000Y-68580000D03*
X63246000Y-68580000D03*
D18*
G36*
X151905417Y-54130516D02*
X151904584Y-55085295D01*
X152269192Y-55967715D01*
X152943734Y-56643435D01*
X153825516Y-57009583D01*
X154780295Y-57010416D01*
X155248000Y-56817165D01*
X155248000Y-70412000D01*
X62684000Y-70412000D01*
X62684000Y-56711644D01*
X63401516Y-57009583D01*
X64356295Y-57010416D01*
X65238715Y-56645808D01*
X65585126Y-56300000D01*
X75804328Y-56300000D01*
X75804328Y-58000000D01*
X75860111Y-58296462D01*
X76035320Y-58568744D01*
X76302658Y-58751409D01*
X76620000Y-58815672D01*
X78320000Y-58815672D01*
X78616462Y-58759889D01*
X78888744Y-58584680D01*
X79048595Y-58350732D01*
X79138466Y-58441434D01*
X79699018Y-58676651D01*
X79713086Y-58679446D01*
X79956000Y-58529944D01*
X79956000Y-57204000D01*
X79936000Y-57204000D01*
X79936000Y-57096000D01*
X79956000Y-57096000D01*
X79956000Y-55770056D01*
X80064000Y-55770056D01*
X80064000Y-57096000D01*
X80084000Y-57096000D01*
X80084000Y-57204000D01*
X80064000Y-57204000D01*
X80064000Y-58529944D01*
X80306914Y-58679446D01*
X80320982Y-58676651D01*
X80881534Y-58441434D01*
X81218062Y-58101794D01*
X81383274Y-58349051D01*
X81918572Y-58706726D01*
X82550000Y-58832325D01*
X83181428Y-58706726D01*
X83716726Y-58349051D01*
X83820000Y-58194491D01*
X83923274Y-58349051D01*
X84458572Y-58706726D01*
X85090000Y-58832325D01*
X85721428Y-58706726D01*
X86256726Y-58349051D01*
X86421938Y-58101794D01*
X86758466Y-58441434D01*
X87319018Y-58676651D01*
X87333086Y-58679446D01*
X87576000Y-58529944D01*
X87576000Y-57204000D01*
X87556000Y-57204000D01*
X87556000Y-57096000D01*
X87576000Y-57096000D01*
X87576000Y-55770056D01*
X87684000Y-55770056D01*
X87684000Y-57096000D01*
X87704000Y-57096000D01*
X87704000Y-57204000D01*
X87684000Y-57204000D01*
X87684000Y-58529944D01*
X87926914Y-58679446D01*
X87940982Y-58676651D01*
X88501534Y-58441434D01*
X88838062Y-58101794D01*
X89003274Y-58349051D01*
X89538572Y-58706726D01*
X90170000Y-58832325D01*
X90801428Y-58706726D01*
X91336726Y-58349051D01*
X91694401Y-57813753D01*
X91820000Y-57182325D01*
X91820000Y-57117675D01*
X91694401Y-56486247D01*
X91569955Y-56300000D01*
X126604328Y-56300000D01*
X126604328Y-58000000D01*
X126660111Y-58296462D01*
X126835320Y-58568744D01*
X127102658Y-58751409D01*
X127420000Y-58815672D01*
X129120000Y-58815672D01*
X129416462Y-58759889D01*
X129688744Y-58584680D01*
X129848595Y-58350732D01*
X129938466Y-58441434D01*
X130499018Y-58676651D01*
X130513086Y-58679446D01*
X130756000Y-58529944D01*
X130756000Y-57204000D01*
X130736000Y-57204000D01*
X130736000Y-57096000D01*
X130756000Y-57096000D01*
X130756000Y-55770056D01*
X130864000Y-55770056D01*
X130864000Y-57096000D01*
X130884000Y-57096000D01*
X130884000Y-57204000D01*
X130864000Y-57204000D01*
X130864000Y-58529944D01*
X131106914Y-58679446D01*
X131120982Y-58676651D01*
X131681534Y-58441434D01*
X132018062Y-58101794D01*
X132183274Y-58349051D01*
X132718572Y-58706726D01*
X133350000Y-58832325D01*
X133981428Y-58706726D01*
X134516726Y-58349051D01*
X134620000Y-58194491D01*
X134723274Y-58349051D01*
X135258572Y-58706726D01*
X135890000Y-58832325D01*
X136521428Y-58706726D01*
X137056726Y-58349051D01*
X137221938Y-58101794D01*
X137558466Y-58441434D01*
X138119018Y-58676651D01*
X138133086Y-58679446D01*
X138376000Y-58529944D01*
X138376000Y-57204000D01*
X138356000Y-57204000D01*
X138356000Y-57096000D01*
X138376000Y-57096000D01*
X138376000Y-55770056D01*
X138484000Y-55770056D01*
X138484000Y-57096000D01*
X138504000Y-57096000D01*
X138504000Y-57204000D01*
X138484000Y-57204000D01*
X138484000Y-58529944D01*
X138726914Y-58679446D01*
X138740982Y-58676651D01*
X139301534Y-58441434D01*
X139638062Y-58101794D01*
X139803274Y-58349051D01*
X140338572Y-58706726D01*
X140970000Y-58832325D01*
X141601428Y-58706726D01*
X142136726Y-58349051D01*
X142494401Y-57813753D01*
X142620000Y-57182325D01*
X142620000Y-57117675D01*
X142494401Y-56486247D01*
X142136726Y-55950949D01*
X141601428Y-55593274D01*
X140970000Y-55467675D01*
X140338572Y-55593274D01*
X139803274Y-55950949D01*
X139638062Y-56198206D01*
X139301534Y-55858566D01*
X138740982Y-55623349D01*
X138726914Y-55620554D01*
X138484000Y-55770056D01*
X138376000Y-55770056D01*
X138133086Y-55620554D01*
X138119018Y-55623349D01*
X137558466Y-55858566D01*
X137221938Y-56198206D01*
X137056726Y-55950949D01*
X136521428Y-55593274D01*
X135890000Y-55467675D01*
X135258572Y-55593274D01*
X134723274Y-55950949D01*
X134620000Y-56105509D01*
X134516726Y-55950949D01*
X133981428Y-55593274D01*
X133350000Y-55467675D01*
X132718572Y-55593274D01*
X132183274Y-55950949D01*
X132018062Y-56198206D01*
X131681534Y-55858566D01*
X131120982Y-55623349D01*
X131106914Y-55620554D01*
X130864000Y-55770056D01*
X130756000Y-55770056D01*
X130513086Y-55620554D01*
X130499018Y-55623349D01*
X129938466Y-55858566D01*
X129846396Y-55951488D01*
X129704680Y-55731256D01*
X129437342Y-55548591D01*
X129120000Y-55484328D01*
X127420000Y-55484328D01*
X127123538Y-55540111D01*
X126851256Y-55715320D01*
X126668591Y-55982658D01*
X126604328Y-56300000D01*
X91569955Y-56300000D01*
X91336726Y-55950949D01*
X90801428Y-55593274D01*
X90170000Y-55467675D01*
X89538572Y-55593274D01*
X89003274Y-55950949D01*
X88838062Y-56198206D01*
X88501534Y-55858566D01*
X87940982Y-55623349D01*
X87926914Y-55620554D01*
X87684000Y-55770056D01*
X87576000Y-55770056D01*
X87333086Y-55620554D01*
X87319018Y-55623349D01*
X86758466Y-55858566D01*
X86421938Y-56198206D01*
X86256726Y-55950949D01*
X85721428Y-55593274D01*
X85090000Y-55467675D01*
X84458572Y-55593274D01*
X83923274Y-55950949D01*
X83820000Y-56105509D01*
X83716726Y-55950949D01*
X83181428Y-55593274D01*
X82550000Y-55467675D01*
X81918572Y-55593274D01*
X81383274Y-55950949D01*
X81218062Y-56198206D01*
X80881534Y-55858566D01*
X80320982Y-55623349D01*
X80306914Y-55620554D01*
X80064000Y-55770056D01*
X79956000Y-55770056D01*
X79713086Y-55620554D01*
X79699018Y-55623349D01*
X79138466Y-55858566D01*
X79046396Y-55951488D01*
X78904680Y-55731256D01*
X78637342Y-55548591D01*
X78320000Y-55484328D01*
X76620000Y-55484328D01*
X76323538Y-55540111D01*
X76051256Y-55715320D01*
X75868591Y-55982658D01*
X75804328Y-56300000D01*
X65585126Y-56300000D01*
X65914435Y-55971266D01*
X66280583Y-55089484D01*
X66281416Y-54134705D01*
X66035689Y-53540000D01*
X152150621Y-53540000D01*
X151905417Y-54130516D01*
X151905417Y-54130516D01*
G37*
X151905417Y-54130516D02*
X151904584Y-55085295D01*
X152269192Y-55967715D01*
X152943734Y-56643435D01*
X153825516Y-57009583D01*
X154780295Y-57010416D01*
X155248000Y-56817165D01*
X155248000Y-70412000D01*
X62684000Y-70412000D01*
X62684000Y-56711644D01*
X63401516Y-57009583D01*
X64356295Y-57010416D01*
X65238715Y-56645808D01*
X65585126Y-56300000D01*
X75804328Y-56300000D01*
X75804328Y-58000000D01*
X75860111Y-58296462D01*
X76035320Y-58568744D01*
X76302658Y-58751409D01*
X76620000Y-58815672D01*
X78320000Y-58815672D01*
X78616462Y-58759889D01*
X78888744Y-58584680D01*
X79048595Y-58350732D01*
X79138466Y-58441434D01*
X79699018Y-58676651D01*
X79713086Y-58679446D01*
X79956000Y-58529944D01*
X79956000Y-57204000D01*
X79936000Y-57204000D01*
X79936000Y-57096000D01*
X79956000Y-57096000D01*
X79956000Y-55770056D01*
X80064000Y-55770056D01*
X80064000Y-57096000D01*
X80084000Y-57096000D01*
X80084000Y-57204000D01*
X80064000Y-57204000D01*
X80064000Y-58529944D01*
X80306914Y-58679446D01*
X80320982Y-58676651D01*
X80881534Y-58441434D01*
X81218062Y-58101794D01*
X81383274Y-58349051D01*
X81918572Y-58706726D01*
X82550000Y-58832325D01*
X83181428Y-58706726D01*
X83716726Y-58349051D01*
X83820000Y-58194491D01*
X83923274Y-58349051D01*
X84458572Y-58706726D01*
X85090000Y-58832325D01*
X85721428Y-58706726D01*
X86256726Y-58349051D01*
X86421938Y-58101794D01*
X86758466Y-58441434D01*
X87319018Y-58676651D01*
X87333086Y-58679446D01*
X87576000Y-58529944D01*
X87576000Y-57204000D01*
X87556000Y-57204000D01*
X87556000Y-57096000D01*
X87576000Y-57096000D01*
X87576000Y-55770056D01*
X87684000Y-55770056D01*
X87684000Y-57096000D01*
X87704000Y-57096000D01*
X87704000Y-57204000D01*
X87684000Y-57204000D01*
X87684000Y-58529944D01*
X87926914Y-58679446D01*
X87940982Y-58676651D01*
X88501534Y-58441434D01*
X88838062Y-58101794D01*
X89003274Y-58349051D01*
X89538572Y-58706726D01*
X90170000Y-58832325D01*
X90801428Y-58706726D01*
X91336726Y-58349051D01*
X91694401Y-57813753D01*
X91820000Y-57182325D01*
X91820000Y-57117675D01*
X91694401Y-56486247D01*
X91569955Y-56300000D01*
X126604328Y-56300000D01*
X126604328Y-58000000D01*
X126660111Y-58296462D01*
X126835320Y-58568744D01*
X127102658Y-58751409D01*
X127420000Y-58815672D01*
X129120000Y-58815672D01*
X129416462Y-58759889D01*
X129688744Y-58584680D01*
X129848595Y-58350732D01*
X129938466Y-58441434D01*
X130499018Y-58676651D01*
X130513086Y-58679446D01*
X130756000Y-58529944D01*
X130756000Y-57204000D01*
X130736000Y-57204000D01*
X130736000Y-57096000D01*
X130756000Y-57096000D01*
X130756000Y-55770056D01*
X130864000Y-55770056D01*
X130864000Y-57096000D01*
X130884000Y-57096000D01*
X130884000Y-57204000D01*
X130864000Y-57204000D01*
X130864000Y-58529944D01*
X131106914Y-58679446D01*
X131120982Y-58676651D01*
X131681534Y-58441434D01*
X132018062Y-58101794D01*
X132183274Y-58349051D01*
X132718572Y-58706726D01*
X133350000Y-58832325D01*
X133981428Y-58706726D01*
X134516726Y-58349051D01*
X134620000Y-58194491D01*
X134723274Y-58349051D01*
X135258572Y-58706726D01*
X135890000Y-58832325D01*
X136521428Y-58706726D01*
X137056726Y-58349051D01*
X137221938Y-58101794D01*
X137558466Y-58441434D01*
X138119018Y-58676651D01*
X138133086Y-58679446D01*
X138376000Y-58529944D01*
X138376000Y-57204000D01*
X138356000Y-57204000D01*
X138356000Y-57096000D01*
X138376000Y-57096000D01*
X138376000Y-55770056D01*
X138484000Y-55770056D01*
X138484000Y-57096000D01*
X138504000Y-57096000D01*
X138504000Y-57204000D01*
X138484000Y-57204000D01*
X138484000Y-58529944D01*
X138726914Y-58679446D01*
X138740982Y-58676651D01*
X139301534Y-58441434D01*
X139638062Y-58101794D01*
X139803274Y-58349051D01*
X140338572Y-58706726D01*
X140970000Y-58832325D01*
X141601428Y-58706726D01*
X142136726Y-58349051D01*
X142494401Y-57813753D01*
X142620000Y-57182325D01*
X142620000Y-57117675D01*
X142494401Y-56486247D01*
X142136726Y-55950949D01*
X141601428Y-55593274D01*
X140970000Y-55467675D01*
X140338572Y-55593274D01*
X139803274Y-55950949D01*
X139638062Y-56198206D01*
X139301534Y-55858566D01*
X138740982Y-55623349D01*
X138726914Y-55620554D01*
X138484000Y-55770056D01*
X138376000Y-55770056D01*
X138133086Y-55620554D01*
X138119018Y-55623349D01*
X137558466Y-55858566D01*
X137221938Y-56198206D01*
X137056726Y-55950949D01*
X136521428Y-55593274D01*
X135890000Y-55467675D01*
X135258572Y-55593274D01*
X134723274Y-55950949D01*
X134620000Y-56105509D01*
X134516726Y-55950949D01*
X133981428Y-55593274D01*
X133350000Y-55467675D01*
X132718572Y-55593274D01*
X132183274Y-55950949D01*
X132018062Y-56198206D01*
X131681534Y-55858566D01*
X131120982Y-55623349D01*
X131106914Y-55620554D01*
X130864000Y-55770056D01*
X130756000Y-55770056D01*
X130513086Y-55620554D01*
X130499018Y-55623349D01*
X129938466Y-55858566D01*
X129846396Y-55951488D01*
X129704680Y-55731256D01*
X129437342Y-55548591D01*
X129120000Y-55484328D01*
X127420000Y-55484328D01*
X127123538Y-55540111D01*
X126851256Y-55715320D01*
X126668591Y-55982658D01*
X126604328Y-56300000D01*
X91569955Y-56300000D01*
X91336726Y-55950949D01*
X90801428Y-55593274D01*
X90170000Y-55467675D01*
X89538572Y-55593274D01*
X89003274Y-55950949D01*
X88838062Y-56198206D01*
X88501534Y-55858566D01*
X87940982Y-55623349D01*
X87926914Y-55620554D01*
X87684000Y-55770056D01*
X87576000Y-55770056D01*
X87333086Y-55620554D01*
X87319018Y-55623349D01*
X86758466Y-55858566D01*
X86421938Y-56198206D01*
X86256726Y-55950949D01*
X85721428Y-55593274D01*
X85090000Y-55467675D01*
X84458572Y-55593274D01*
X83923274Y-55950949D01*
X83820000Y-56105509D01*
X83716726Y-55950949D01*
X83181428Y-55593274D01*
X82550000Y-55467675D01*
X81918572Y-55593274D01*
X81383274Y-55950949D01*
X81218062Y-56198206D01*
X80881534Y-55858566D01*
X80320982Y-55623349D01*
X80306914Y-55620554D01*
X80064000Y-55770056D01*
X79956000Y-55770056D01*
X79713086Y-55620554D01*
X79699018Y-55623349D01*
X79138466Y-55858566D01*
X79046396Y-55951488D01*
X78904680Y-55731256D01*
X78637342Y-55548591D01*
X78320000Y-55484328D01*
X76620000Y-55484328D01*
X76323538Y-55540111D01*
X76051256Y-55715320D01*
X75868591Y-55982658D01*
X75804328Y-56300000D01*
X65585126Y-56300000D01*
X65914435Y-55971266D01*
X66280583Y-55089484D01*
X66281416Y-54134705D01*
X66035689Y-53540000D01*
X152150621Y-53540000D01*
X151905417Y-54130516D01*
M02*
