M48
;DRILL file {KiCad 4.0.7} date 05/31/18 17:41:57
;FORMAT={2:4/ absolute / inch / suppress trailing zeros}
FMAT,2
INCH,LZ
T1C0.020
T2C0.039
T3C0.047
T4C0.060
T5C0.126
%
G90
G05
M72
T1
X0249Y-027
X03325Y-027
X044Y-027
X053Y-02675
T2
X0305Y-0225
X0315Y-0225
X0325Y-0225
X0335Y-0225
X0345Y-0225
X0355Y-0225
X0505Y-0225
X0515Y-0225
X0525Y-0225
X0535Y-0225
X0545Y-0225
X0555Y-0225
T4
X0265Y-039
X0285Y-039
X0305Y-039
X0355Y-039
X0375Y-039
X0395Y-039
X0465Y-039
X0485Y-039
X0505Y-039
X0555Y-039
X0575Y-039
X0595Y-039
T5
X02515Y-0215
X033Y-04165
X053Y-04165
X06075Y-0215
T3
X026Y-029941G85X026Y-030059
G05
X026Y-034941G85X026Y-035059
G05
X028441Y-029G85X028559Y-029
G05
X031Y-029941G85X031Y-030059
G05
X031Y-034941G85X031Y-035059
G05
X035Y-029941G85X035Y-030059
G05
X035Y-034941G85X035Y-035059
G05
X037441Y-029G85X037559Y-029
G05
X04Y-029941G85X04Y-030059
G05
X04Y-034941G85X04Y-035059
G05
X046Y-029941G85X046Y-030059
G05
X046Y-034941G85X046Y-035059
G05
X048441Y-029G85X048559Y-029
G05
X051Y-029941G85X051Y-030059
G05
X051Y-034941G85X051Y-035059
G05
X055Y-029941G85X055Y-030059
G05
X055Y-034941G85X055Y-035059
G05
X057441Y-029G85X057559Y-029
G05
X06Y-029941G85X06Y-030059
G05
X06Y-034941G85X06Y-035059
G05
T0
M30
