G04 #@! TF.FileFunction,Copper,L1,Top,Signal*
%FSLAX46Y46*%
G04 Gerber Fmt 4.6, Leading zero omitted, Abs format (unit mm)*
G04 Created by KiCad (PCBNEW 4.0.7) date 05/31/18 17:41:53*
%MOMM*%
%LPD*%
G01*
G04 APERTURE LIST*
%ADD10C,0.100000*%
%ADD11R,1.900000X0.800000*%
%ADD12R,1.500000X1.300000*%
%ADD13R,3.000000X3.000000*%
%ADD14C,3.000000*%
%ADD15O,2.500000X3.200000*%
%ADD16O,3.200000X2.500000*%
%ADD17R,3.500000X1.800000*%
%ADD18R,1.300000X1.500000*%
%ADD19R,1.700000X1.700000*%
%ADD20O,1.700000X1.700000*%
%ADD21C,0.762000*%
%ADD22C,0.609600*%
%ADD23C,0.614680*%
%ADD24C,4.064000*%
%ADD25C,2.540000*%
G04 APERTURE END LIST*
D10*
D11*
X115594000Y-66614000D03*
X115594000Y-68514000D03*
X118594000Y-67564000D03*
D12*
X77390000Y-63500000D03*
X80090000Y-63500000D03*
X100250000Y-63500000D03*
X102950000Y-63500000D03*
X127936000Y-63500000D03*
X130636000Y-63500000D03*
X150542000Y-63500000D03*
X153242000Y-63500000D03*
D13*
X67310000Y-99060000D03*
D14*
X72390000Y-99060000D03*
X77470000Y-99060000D03*
D13*
X90170000Y-99060000D03*
D14*
X95250000Y-99060000D03*
X100330000Y-99060000D03*
D13*
X118110000Y-99060000D03*
D14*
X123190000Y-99060000D03*
X128270000Y-99060000D03*
D13*
X140970000Y-99060000D03*
D14*
X146050000Y-99060000D03*
X151130000Y-99060000D03*
D11*
X65556000Y-66614000D03*
X65556000Y-68514000D03*
X68556000Y-67564000D03*
X87654000Y-66614000D03*
X87654000Y-68514000D03*
X90654000Y-67564000D03*
X138454000Y-66360000D03*
X138454000Y-68260000D03*
X141454000Y-67310000D03*
D12*
X71294000Y-63500000D03*
X73994000Y-63500000D03*
X94154000Y-63500000D03*
X96854000Y-63500000D03*
X65452000Y-63500000D03*
X68152000Y-63500000D03*
X87790000Y-63500000D03*
X85090000Y-63500000D03*
X121586000Y-63500000D03*
X124286000Y-63500000D03*
X144446000Y-63500000D03*
X147146000Y-63500000D03*
X115490000Y-63500000D03*
X118190000Y-63500000D03*
X138510000Y-63500000D03*
X135810000Y-63500000D03*
D15*
X66040000Y-76200000D03*
X78740000Y-76200000D03*
D16*
X72390000Y-73660000D03*
D15*
X78740000Y-88900000D03*
X66040000Y-88900000D03*
X88900000Y-76200000D03*
X101600000Y-76200000D03*
D16*
X95250000Y-73660000D03*
D15*
X101600000Y-88900000D03*
X88900000Y-88900000D03*
X116840000Y-76200000D03*
X129540000Y-76200000D03*
D16*
X123190000Y-73660000D03*
D15*
X129540000Y-88900000D03*
X116840000Y-88900000D03*
X139700000Y-76200000D03*
X152400000Y-76200000D03*
D16*
X146050000Y-73660000D03*
D15*
X152400000Y-88900000D03*
X139700000Y-88900000D03*
D17*
X78700000Y-67564000D03*
X73700000Y-67564000D03*
X102068000Y-67310000D03*
X97068000Y-67310000D03*
X129754000Y-67310000D03*
X124754000Y-67310000D03*
X152360000Y-67310000D03*
X147360000Y-67310000D03*
D18*
X93980000Y-59770000D03*
X93980000Y-57070000D03*
X144145000Y-59770000D03*
X144145000Y-57070000D03*
D12*
X87470000Y-60325000D03*
X90170000Y-60325000D03*
X138350000Y-60325000D03*
X141050000Y-60325000D03*
D19*
X128270000Y-57150000D03*
D20*
X130810000Y-57150000D03*
X133350000Y-57150000D03*
X135890000Y-57150000D03*
X138430000Y-57150000D03*
X140970000Y-57150000D03*
D19*
X77470000Y-57150000D03*
D20*
X80010000Y-57150000D03*
X82550000Y-57150000D03*
X85090000Y-57150000D03*
X87630000Y-57150000D03*
X90170000Y-57150000D03*
D21*
X111760000Y-68580000D03*
X134620000Y-67945000D03*
X84455000Y-68580000D03*
X63246000Y-68580000D03*
D22*
X77390000Y-63500000D02*
X73994000Y-63500000D01*
D23*
X141859000Y-56261000D02*
X140970000Y-56261000D01*
X142367000Y-56261000D02*
X141859000Y-56261000D01*
X141859000Y-56261000D02*
X140970000Y-57150000D01*
X144145000Y-57070000D02*
X142113000Y-57070000D01*
X142113000Y-57070000D02*
X141050000Y-57070000D01*
X142367000Y-56515000D02*
X142113000Y-56769000D01*
X142113000Y-56769000D02*
X142113000Y-57070000D01*
X142748000Y-56261000D02*
X142367000Y-56261000D01*
X142367000Y-56261000D02*
X142367000Y-56515000D01*
X143129000Y-56261000D02*
X142748000Y-56261000D01*
X142748000Y-56261000D02*
X142748000Y-57023000D01*
X142748000Y-57023000D02*
X142701000Y-57070000D01*
X143510000Y-56261000D02*
X143129000Y-56261000D01*
X142701000Y-57070000D02*
X143129000Y-57070000D01*
X143129000Y-57070000D02*
X147146000Y-57070000D01*
X143129000Y-56261000D02*
X143129000Y-57070000D01*
X147574000Y-57150000D02*
X143383000Y-57150000D01*
X144780000Y-56261000D02*
X143510000Y-56261000D01*
X143383000Y-57150000D02*
X142621000Y-57150000D01*
X143510000Y-56261000D02*
X143510000Y-57023000D01*
X143510000Y-57023000D02*
X143383000Y-57150000D01*
X145415000Y-56261000D02*
X145415000Y-56943000D01*
X145415000Y-56943000D02*
X145288000Y-57070000D01*
X145622000Y-57070000D02*
X145288000Y-57070000D01*
X145415000Y-56261000D02*
X144780000Y-56261000D01*
X145288000Y-57070000D02*
X144145000Y-57070000D01*
X144780000Y-56261000D02*
X144780000Y-56562000D01*
X144780000Y-56562000D02*
X145288000Y-57070000D01*
X145923000Y-56769000D02*
X145622000Y-57070000D01*
X146304000Y-56261000D02*
X145415000Y-56261000D01*
X146812000Y-56769000D02*
X145923000Y-56769000D01*
X145923000Y-56769000D02*
X145415000Y-56261000D01*
X147193000Y-56261000D02*
X146304000Y-56261000D01*
X147447000Y-56769000D02*
X146812000Y-56769000D01*
X146812000Y-56769000D02*
X146304000Y-56261000D01*
X147146000Y-57070000D02*
X147447000Y-56769000D01*
X142621000Y-57150000D02*
X142701000Y-57070000D01*
X148082000Y-56642000D02*
X148510000Y-57070000D01*
X146558000Y-55118000D02*
X148082000Y-56642000D01*
X148082000Y-56642000D02*
X147574000Y-57150000D01*
D22*
X140970000Y-55880000D02*
X140970000Y-56261000D01*
X140970000Y-56261000D02*
X140970000Y-57150000D01*
D23*
X146558000Y-55118000D02*
X141986000Y-55118000D01*
X141986000Y-55118000D02*
X141478000Y-55626000D01*
X141478000Y-55626000D02*
X146558000Y-55626000D01*
X146558000Y-55626000D02*
X147193000Y-56261000D01*
X146304000Y-54864000D02*
X146558000Y-55118000D01*
X146062838Y-54622838D02*
X146304000Y-54864000D01*
X140970000Y-55626000D02*
X141732000Y-54864000D01*
X141732000Y-54864000D02*
X146304000Y-54864000D01*
X140970000Y-57150000D02*
X140970000Y-55626000D01*
X141224000Y-54622838D02*
X146062838Y-54622838D01*
X140716000Y-54622838D02*
X141224000Y-54622838D01*
X141224000Y-54622838D02*
X140970000Y-54876838D01*
X140970000Y-54876838D02*
X140970000Y-57150000D01*
X139712838Y-54622838D02*
X140716000Y-54622838D01*
D22*
X140716000Y-55626000D02*
X140970000Y-55880000D01*
X139712838Y-54622838D02*
X140716000Y-55626000D01*
D23*
X140716000Y-54622838D02*
X140716000Y-55626000D01*
X101473000Y-59806701D02*
X101473000Y-59319299D01*
X101473000Y-59319299D02*
X101092000Y-58938299D01*
X101473000Y-59806701D02*
X101219000Y-59806701D01*
X101219000Y-59806701D02*
X100721299Y-59309000D01*
X99314000Y-57070000D02*
X99695000Y-57070000D01*
X98482299Y-57070000D02*
X99314000Y-57070000D01*
D22*
X98482299Y-57070000D02*
X99197299Y-57785000D01*
X99197299Y-57785000D02*
X99578299Y-58166000D01*
D23*
X99314000Y-57070000D02*
X99314000Y-57668299D01*
X99314000Y-57668299D02*
X99197299Y-57785000D01*
X100076000Y-57070000D02*
X100457000Y-57070000D01*
X99695000Y-57070000D02*
X100076000Y-57070000D01*
D22*
X99578299Y-58166000D02*
X100076000Y-58663701D01*
X100076000Y-58663701D02*
X100340299Y-58928000D01*
D23*
X100076000Y-57070000D02*
X100076000Y-58663701D01*
X102616000Y-57070000D02*
X103204000Y-57070000D01*
X102235000Y-57070000D02*
X102616000Y-57070000D01*
D22*
X101864299Y-60452000D02*
X102743000Y-61330701D01*
X102743000Y-61330701D02*
X102950000Y-61537701D01*
D23*
X102616000Y-57070000D02*
X102616000Y-61203701D01*
X102616000Y-61203701D02*
X102743000Y-61330701D01*
X101854000Y-57070000D02*
X102235000Y-57070000D01*
D22*
X101483299Y-60071000D02*
X101864299Y-60452000D01*
D23*
X102235000Y-57070000D02*
X102235000Y-60081299D01*
X102235000Y-60081299D02*
X101864299Y-60452000D01*
X101473000Y-57070000D02*
X101854000Y-57070000D01*
X101092000Y-57070000D02*
X101473000Y-57070000D01*
D22*
X100721299Y-59309000D02*
X101346000Y-59933701D01*
X101346000Y-59933701D02*
X101483299Y-60071000D01*
D23*
X101473000Y-57070000D02*
X101473000Y-59806701D01*
X101473000Y-59806701D02*
X101346000Y-59933701D01*
X101092000Y-57070000D02*
X101092000Y-58938299D01*
X100457000Y-57070000D02*
X101092000Y-57070000D01*
D22*
X100340299Y-58928000D02*
X100721299Y-59309000D01*
D23*
X101092000Y-58938299D02*
X100721299Y-59309000D01*
X101854000Y-59700299D02*
X101483299Y-60071000D01*
X101854000Y-57070000D02*
X101854000Y-59700299D01*
X100457000Y-57070000D02*
X100457000Y-58811299D01*
X100457000Y-58811299D02*
X100340299Y-58928000D01*
X99695000Y-57070000D02*
X99695000Y-58049299D01*
X99695000Y-58049299D02*
X99578299Y-58166000D01*
X102950000Y-57324000D02*
X103378000Y-56896000D01*
X103378000Y-56896000D02*
X105664000Y-54610000D01*
X103204000Y-57070000D02*
X103378000Y-56896000D01*
D22*
X91440000Y-54610000D02*
X105664000Y-54610000D01*
X105664000Y-54610000D02*
X132080000Y-54610000D01*
D23*
X102950000Y-61537701D02*
X102950000Y-57324000D01*
X141050000Y-57070000D02*
X140970000Y-57150000D01*
D22*
X133350000Y-55947919D02*
X133985000Y-55312919D01*
X133985000Y-55312919D02*
X134620000Y-54677919D01*
X133350000Y-54610000D02*
X133350000Y-54677919D01*
X133350000Y-54677919D02*
X133985000Y-55312919D01*
X133350000Y-54610000D02*
X132715000Y-55245000D01*
X132715000Y-54610000D02*
X133350000Y-54610000D01*
X132080000Y-54610000D02*
X132715000Y-54610000D01*
X133350000Y-55880000D02*
X132715000Y-55245000D01*
X132715000Y-55245000D02*
X132080000Y-54610000D01*
X132715000Y-54610000D02*
X132715000Y-55245000D01*
X133350000Y-54610000D02*
X134552081Y-54610000D01*
X133350000Y-54610000D02*
X133350000Y-55947919D01*
X134620000Y-54677919D02*
X134675081Y-54622838D01*
X134675081Y-54622838D02*
X139712838Y-54622838D01*
X130636000Y-63500000D02*
X130636000Y-63259975D01*
X130636000Y-63259975D02*
X133350000Y-60545975D01*
X133350000Y-60545975D02*
X133350000Y-58352081D01*
X133350000Y-58352081D02*
X133350000Y-57150000D01*
X93980000Y-57070000D02*
X98482299Y-57070000D01*
X102950000Y-61537701D02*
X102950000Y-63500000D01*
X82550000Y-57150000D02*
X82550000Y-61140000D01*
X82550000Y-61140000D02*
X80190000Y-63500000D01*
X80190000Y-63500000D02*
X80090000Y-63500000D01*
X90805000Y-54610000D02*
X91440000Y-54610000D01*
X90170000Y-54610000D02*
X90805000Y-54610000D01*
X90805000Y-54610000D02*
X90170000Y-55245000D01*
X89535000Y-54610000D02*
X90170000Y-54610000D01*
X88265000Y-54610000D02*
X89535000Y-54610000D01*
X89535000Y-54610000D02*
X90170000Y-55245000D01*
X90170000Y-54610000D02*
X90170000Y-55245000D01*
X90170000Y-55245000D02*
X90170000Y-55880000D01*
X90170000Y-55880000D02*
X91440000Y-54610000D01*
X133350000Y-55947919D02*
X133350000Y-55880000D01*
X88265000Y-54610000D02*
X88900000Y-54610000D01*
X83820000Y-54610000D02*
X88265000Y-54610000D01*
X134552081Y-54610000D02*
X134620000Y-54677919D01*
X88900000Y-54610000D02*
X90170000Y-55880000D01*
X90170000Y-55880000D02*
X90170000Y-57150000D01*
X82550000Y-55880000D02*
X83820000Y-54610000D01*
X82550000Y-57150000D02*
X82550000Y-55880000D01*
X90170000Y-57150000D02*
X93900000Y-57150000D01*
X93900000Y-57150000D02*
X93980000Y-57070000D01*
X78700000Y-67564000D02*
X78700000Y-76160000D01*
X78700000Y-76160000D02*
X78740000Y-76200000D01*
X80090000Y-63500000D02*
X80090000Y-66174000D01*
X80090000Y-66174000D02*
X78700000Y-67564000D01*
X133350000Y-57150000D02*
X133350000Y-55947919D01*
X153242000Y-63500000D02*
X153242000Y-61802000D01*
X153242000Y-61802000D02*
X148510000Y-57070000D01*
X148510000Y-57070000D02*
X144145000Y-57070000D01*
X153242000Y-63500000D02*
X153242000Y-66428000D01*
X153242000Y-66428000D02*
X152360000Y-67310000D01*
X152360000Y-67310000D02*
X152360000Y-76160000D01*
X152360000Y-76160000D02*
X152400000Y-76200000D01*
X129754000Y-67310000D02*
X129754000Y-75986000D01*
X129754000Y-75986000D02*
X129540000Y-76200000D01*
X130636000Y-63500000D02*
X130636000Y-66428000D01*
X130636000Y-66428000D02*
X129754000Y-67310000D01*
X101600000Y-76200000D02*
X101600000Y-67778000D01*
X101600000Y-67778000D02*
X102068000Y-67310000D01*
X102950000Y-63500000D02*
X102950000Y-66428000D01*
X102950000Y-66428000D02*
X102068000Y-67310000D01*
X100250000Y-63500000D02*
X96854000Y-63500000D01*
X68556000Y-67564000D02*
X68556000Y-71294071D01*
X68556000Y-71294071D02*
X66040000Y-73810071D01*
X66040000Y-73810071D02*
X66040000Y-76200000D01*
X71755000Y-66610372D02*
X72708628Y-67564000D01*
X71294000Y-66149372D02*
X71755000Y-66610372D01*
X71120000Y-67564000D02*
X71755000Y-67564000D01*
X71755000Y-67564000D02*
X73700000Y-67564000D01*
X71755000Y-66610372D02*
X71755000Y-67564000D01*
X70739000Y-66675000D02*
X69850000Y-67564000D01*
X71294000Y-66120000D02*
X70739000Y-66675000D01*
X70739000Y-66675000D02*
X70739000Y-67183000D01*
X70739000Y-67183000D02*
X71120000Y-67564000D01*
X69850000Y-67564000D02*
X71120000Y-67564000D01*
X71294000Y-66149372D02*
X71294000Y-67390000D01*
X71294000Y-67390000D02*
X71120000Y-67564000D01*
X71294000Y-65405000D02*
X71294000Y-66149372D01*
X71294000Y-63500000D02*
X71294000Y-65405000D01*
X68556000Y-67564000D02*
X69850000Y-67564000D01*
X71294000Y-65405000D02*
X71294000Y-66120000D01*
X72708628Y-67564000D02*
X73700000Y-67564000D01*
X90654000Y-67564000D02*
X90654000Y-71324577D01*
X90654000Y-71324577D02*
X88900000Y-73078577D01*
X88900000Y-73078577D02*
X88900000Y-76200000D01*
X94615000Y-67310000D02*
X93726000Y-67310000D01*
X93726000Y-67310000D02*
X93345000Y-66929000D01*
X94615000Y-67310000D02*
X95385764Y-67310000D01*
X93980000Y-66675000D02*
X94615000Y-67310000D01*
X93980000Y-67564000D02*
X94615000Y-67564000D01*
X94615000Y-67564000D02*
X96814000Y-67564000D01*
X93980000Y-66675000D02*
X93980000Y-66929000D01*
X93980000Y-66929000D02*
X94615000Y-67564000D01*
X92710000Y-67564000D02*
X93345000Y-66929000D01*
X93980000Y-67564000D02*
X93980000Y-66675000D01*
X94234000Y-66929000D02*
X93345000Y-66929000D01*
X93345000Y-66929000D02*
X94154000Y-66120000D01*
X93980000Y-66675000D02*
X94234000Y-66929000D01*
X90654000Y-67564000D02*
X93980000Y-67564000D01*
X96814000Y-67564000D02*
X97068000Y-67310000D01*
X94154000Y-66120000D02*
X94195764Y-66120000D01*
X94195764Y-66120000D02*
X95385764Y-67310000D01*
X95385764Y-67310000D02*
X97068000Y-67310000D01*
X90654000Y-67564000D02*
X92710000Y-67564000D01*
X94154000Y-63500000D02*
X94154000Y-66120000D01*
X127936000Y-63500000D02*
X124286000Y-63500000D01*
X150542000Y-63500000D02*
X147146000Y-63500000D01*
X118594000Y-67564000D02*
X118594000Y-71227381D01*
X116840000Y-72981381D02*
X116840000Y-76200000D01*
X118594000Y-71227381D02*
X116840000Y-72981381D01*
X121285000Y-66294000D02*
X121285000Y-67056000D01*
X121285000Y-67056000D02*
X121031000Y-67310000D01*
X121689095Y-66905905D02*
X121689095Y-67159905D01*
X121689095Y-67159905D02*
X121285000Y-67564000D01*
X121920000Y-67564000D02*
X121920000Y-67136810D01*
X121920000Y-67136810D02*
X121689095Y-66905905D01*
X121920000Y-67564000D02*
X122555000Y-67564000D01*
X121285000Y-67564000D02*
X121920000Y-67564000D01*
X120650000Y-66929000D02*
X121031000Y-67310000D01*
X120650000Y-67564000D02*
X121285000Y-67564000D01*
X120015000Y-67564000D02*
X120650000Y-67564000D01*
X120650000Y-67564000D02*
X120650000Y-66929000D01*
X121586000Y-65993000D02*
X121285000Y-66294000D01*
X121285000Y-66294000D02*
X120015000Y-67564000D01*
X121689095Y-66905905D02*
X121689095Y-66698095D01*
X121689095Y-66698095D02*
X121285000Y-66294000D01*
X122555000Y-67564000D02*
X124500000Y-67564000D01*
X121689095Y-66905905D02*
X121896905Y-66905905D01*
X121896905Y-66905905D02*
X122555000Y-67564000D01*
X121586000Y-65936905D02*
X122555000Y-66905905D01*
X122555000Y-66905905D02*
X122959095Y-67310000D01*
X121689095Y-66905905D02*
X122555000Y-66905905D01*
X121586000Y-65405000D02*
X121586000Y-65936905D01*
X122959095Y-67310000D02*
X124754000Y-67310000D01*
X121586000Y-63500000D02*
X121586000Y-65405000D01*
X118594000Y-67564000D02*
X120015000Y-67564000D01*
X121586000Y-65405000D02*
X121586000Y-65993000D01*
X124500000Y-67564000D02*
X124754000Y-67310000D01*
X144780000Y-67310000D02*
X144145000Y-66675000D01*
X143510000Y-66675000D02*
X142875000Y-67310000D01*
X144145000Y-66040000D02*
X143510000Y-66675000D01*
X143510000Y-66675000D02*
X144145000Y-67310000D01*
X144145000Y-66040000D02*
X144780000Y-66675000D01*
X144145000Y-66675000D02*
X144145000Y-67310000D01*
X144145000Y-66040000D02*
X144145000Y-66675000D01*
X144145000Y-66675000D02*
X144780000Y-66675000D01*
X145415000Y-67310000D02*
X147360000Y-67310000D01*
X144780000Y-67310000D02*
X145415000Y-67310000D01*
X144780000Y-67310000D02*
X144780000Y-66675000D01*
X144780000Y-66675000D02*
X144780000Y-66085554D01*
X145415000Y-67310000D02*
X144780000Y-66675000D01*
X144145000Y-67310000D02*
X144780000Y-67310000D01*
X144446000Y-65751554D02*
X144780000Y-66085554D01*
X144780000Y-66085554D02*
X146004446Y-67310000D01*
X144433446Y-65751554D02*
X144145000Y-66040000D01*
X142875000Y-67310000D02*
X144145000Y-67310000D01*
X141454000Y-67310000D02*
X142875000Y-67310000D01*
X144446000Y-65751554D02*
X144433446Y-65751554D01*
X144446000Y-63500000D02*
X144446000Y-65751554D01*
X146004446Y-67310000D02*
X147360000Y-67310000D01*
X139700000Y-76200000D02*
X139700000Y-73025000D01*
X141454000Y-71271000D02*
X141454000Y-67310000D01*
X139700000Y-73025000D02*
X141454000Y-71271000D01*
X77470000Y-57150000D02*
X72494336Y-57150000D01*
X72494336Y-57150000D02*
X68152000Y-61492336D01*
X68152000Y-61492336D02*
X68152000Y-63500000D01*
X85090000Y-57150000D02*
X85090000Y-63500000D01*
X87470000Y-60325000D02*
X87470000Y-57310000D01*
X87470000Y-57310000D02*
X87630000Y-57150000D01*
X138430000Y-57150000D02*
X138430000Y-60245000D01*
X138430000Y-60245000D02*
X138350000Y-60325000D01*
X115594000Y-68514000D02*
X111826000Y-68514000D01*
X111826000Y-68514000D02*
X111760000Y-68580000D01*
X138454000Y-68260000D02*
X134935000Y-68260000D01*
X134935000Y-68260000D02*
X134620000Y-67945000D01*
X87654000Y-68514000D02*
X84521000Y-68514000D01*
X84521000Y-68514000D02*
X84455000Y-68580000D01*
X65556000Y-68514000D02*
X63312000Y-68514000D01*
X63312000Y-68514000D02*
X63246000Y-68580000D01*
D24*
X66040000Y-91821000D02*
X66040000Y-96520000D01*
D25*
X66040000Y-97790000D02*
X66040000Y-96520000D01*
X67310000Y-99060000D02*
X66040000Y-97790000D01*
X66040000Y-88900000D02*
X66040000Y-91821000D01*
D24*
X72390000Y-77216000D02*
X72390000Y-94234000D01*
D25*
X72390000Y-96938680D02*
X72390000Y-94234000D01*
X72390000Y-99060000D02*
X72390000Y-96938680D01*
X72390000Y-73660000D02*
X72390000Y-77216000D01*
D24*
X78740000Y-91694000D02*
X78740000Y-96060002D01*
X78740000Y-96060002D02*
X78969999Y-96290001D01*
D25*
X78969999Y-96290001D02*
X78969999Y-97560001D01*
X77470000Y-99060000D02*
X78969999Y-97560001D01*
X78740000Y-88900000D02*
X78740000Y-91694000D01*
D24*
X88900000Y-91948000D02*
X88900000Y-96012000D01*
X88900000Y-96012000D02*
X88646000Y-96266000D01*
D25*
X88646000Y-97536000D02*
X88646000Y-96266000D01*
X90170000Y-99060000D02*
X88646000Y-97536000D01*
X88900000Y-88900000D02*
X88900000Y-91948000D01*
D24*
X95250000Y-77470000D02*
X95250000Y-94242666D01*
D25*
X95250000Y-93218000D02*
X95250000Y-99060000D01*
X95250000Y-73660000D02*
X95250000Y-77470000D01*
D24*
X101600000Y-91948000D02*
X101600000Y-95933002D01*
X101600000Y-95933002D02*
X101829999Y-96163001D01*
D25*
X100330000Y-99060000D02*
X101829999Y-97560001D01*
X101829999Y-97560001D02*
X101829999Y-96163001D01*
X101600000Y-88900000D02*
X101600000Y-91948000D01*
D22*
X118190000Y-63500000D02*
X118190000Y-61674579D01*
X118190000Y-61674579D02*
X122714579Y-57150000D01*
X122714579Y-57150000D02*
X126810400Y-57150000D01*
X126810400Y-57150000D02*
X128270000Y-57150000D01*
X135810000Y-63500000D02*
X135810000Y-57230000D01*
X135810000Y-57230000D02*
X135890000Y-57150000D01*
D25*
X116840000Y-88900000D02*
X116840000Y-91948000D01*
X116840000Y-91948000D02*
X116713000Y-92075000D01*
D24*
X116713000Y-96393000D02*
X116713000Y-92075000D01*
D25*
X116713000Y-97663000D02*
X116713000Y-96393000D01*
X118110000Y-99060000D02*
X116713000Y-97663000D01*
D24*
X123190000Y-77450000D02*
X123190000Y-93726000D01*
D25*
X123190000Y-96938680D02*
X123190000Y-93726000D01*
X123190000Y-99060000D02*
X123190000Y-96938680D01*
X123190000Y-73660000D02*
X123190000Y-77450000D01*
D24*
X129540000Y-91313000D02*
X129540000Y-95885000D01*
X129540000Y-95885000D02*
X129769999Y-96114999D01*
D25*
X128270000Y-99060000D02*
X129769999Y-97560001D01*
X129769999Y-97560001D02*
X129769999Y-96114999D01*
X129540000Y-88900000D02*
X129540000Y-91313000D01*
D24*
X139700000Y-91313000D02*
X139700000Y-96139000D01*
X139700000Y-96139000D02*
X139573000Y-96266000D01*
D25*
X139573000Y-97663000D02*
X139573000Y-96266000D01*
X140970000Y-99060000D02*
X139573000Y-97663000D01*
X139700000Y-88900000D02*
X139700000Y-91313000D01*
D24*
X146050000Y-77343000D02*
X146050000Y-94488000D01*
D25*
X146050000Y-96938680D02*
X146050000Y-94488000D01*
X146050000Y-99060000D02*
X146050000Y-96938680D01*
X146050000Y-73660000D02*
X146050000Y-77343000D01*
D24*
X152400000Y-91313000D02*
X152400000Y-96060002D01*
X152400000Y-96060002D02*
X152629999Y-96290001D01*
D25*
X152629999Y-96290001D02*
X152629999Y-97560001D01*
X151130000Y-99060000D02*
X152629999Y-97560001D01*
X152400000Y-88900000D02*
X152400000Y-91313000D01*
D22*
X65452000Y-63500000D02*
X65452000Y-66510000D01*
X65452000Y-66510000D02*
X65556000Y-66614000D01*
X87790000Y-63500000D02*
X87790000Y-66478000D01*
X87790000Y-66478000D02*
X87654000Y-66614000D01*
X115594000Y-66614000D02*
X115594000Y-63604000D01*
X115594000Y-63604000D02*
X115490000Y-63500000D01*
X138510000Y-63500000D02*
X138430000Y-63580000D01*
X138430000Y-63580000D02*
X138430000Y-66336000D01*
X138430000Y-66336000D02*
X138454000Y-66360000D01*
X90170000Y-60325000D02*
X93425000Y-60325000D01*
X93425000Y-60325000D02*
X93980000Y-59770000D01*
X141050000Y-60325000D02*
X143590000Y-60325000D01*
X143590000Y-60325000D02*
X144145000Y-59770000D01*
M02*
