G04 #@! TF.FileFunction,Soldermask,Top*
%FSLAX46Y46*%
G04 Gerber Fmt 4.6, Leading zero omitted, Abs format (unit mm)*
G04 Created by KiCad (PCBNEW 4.0.7) date 05/31/18 17:41:53*
%MOMM*%
%LPD*%
G01*
G04 APERTURE LIST*
%ADD10C,0.100000*%
%ADD11C,3.600000*%
%ADD12R,2.300000X1.200000*%
%ADD13R,1.900000X1.700000*%
%ADD14R,3.400000X3.400000*%
%ADD15C,3.400000*%
%ADD16O,2.900000X3.600000*%
%ADD17O,3.600000X2.900000*%
%ADD18R,3.900000X2.200000*%
%ADD19R,1.700000X1.900000*%
%ADD20R,2.100000X2.100000*%
%ADD21O,2.100000X2.100000*%
G04 APERTURE END LIST*
D10*
D11*
X134620000Y-105791000D03*
X63881000Y-54610000D03*
X83820000Y-105791000D03*
D12*
X115594000Y-66614000D03*
X115594000Y-68514000D03*
X118594000Y-67564000D03*
D13*
X77390000Y-63500000D03*
X80090000Y-63500000D03*
X100250000Y-63500000D03*
X102950000Y-63500000D03*
X127936000Y-63500000D03*
X130636000Y-63500000D03*
X150542000Y-63500000D03*
X153242000Y-63500000D03*
D14*
X67310000Y-99060000D03*
D15*
X72390000Y-99060000D03*
X77470000Y-99060000D03*
D14*
X90170000Y-99060000D03*
D15*
X95250000Y-99060000D03*
X100330000Y-99060000D03*
D14*
X118110000Y-99060000D03*
D15*
X123190000Y-99060000D03*
X128270000Y-99060000D03*
D14*
X140970000Y-99060000D03*
D15*
X146050000Y-99060000D03*
X151130000Y-99060000D03*
D12*
X65556000Y-66614000D03*
X65556000Y-68514000D03*
X68556000Y-67564000D03*
X87654000Y-66614000D03*
X87654000Y-68514000D03*
X90654000Y-67564000D03*
X138454000Y-66360000D03*
X138454000Y-68260000D03*
X141454000Y-67310000D03*
D13*
X71294000Y-63500000D03*
X73994000Y-63500000D03*
X94154000Y-63500000D03*
X96854000Y-63500000D03*
X65452000Y-63500000D03*
X68152000Y-63500000D03*
X87790000Y-63500000D03*
X85090000Y-63500000D03*
X121586000Y-63500000D03*
X124286000Y-63500000D03*
X144446000Y-63500000D03*
X147146000Y-63500000D03*
X115490000Y-63500000D03*
X118190000Y-63500000D03*
X138510000Y-63500000D03*
X135810000Y-63500000D03*
D16*
X66040000Y-76200000D03*
X78740000Y-76200000D03*
D17*
X72390000Y-73660000D03*
D16*
X78740000Y-88900000D03*
X66040000Y-88900000D03*
X88900000Y-76200000D03*
X101600000Y-76200000D03*
D17*
X95250000Y-73660000D03*
D16*
X101600000Y-88900000D03*
X88900000Y-88900000D03*
X116840000Y-76200000D03*
X129540000Y-76200000D03*
D17*
X123190000Y-73660000D03*
D16*
X129540000Y-88900000D03*
X116840000Y-88900000D03*
X139700000Y-76200000D03*
X152400000Y-76200000D03*
D17*
X146050000Y-73660000D03*
D16*
X152400000Y-88900000D03*
X139700000Y-88900000D03*
D18*
X78700000Y-67564000D03*
X73700000Y-67564000D03*
X102068000Y-67310000D03*
X97068000Y-67310000D03*
X129754000Y-67310000D03*
X124754000Y-67310000D03*
X152360000Y-67310000D03*
X147360000Y-67310000D03*
D19*
X93980000Y-59770000D03*
X93980000Y-57070000D03*
X144145000Y-59770000D03*
X144145000Y-57070000D03*
D13*
X87470000Y-60325000D03*
X90170000Y-60325000D03*
X138350000Y-60325000D03*
X141050000Y-60325000D03*
D20*
X128270000Y-57150000D03*
D21*
X130810000Y-57150000D03*
X133350000Y-57150000D03*
X135890000Y-57150000D03*
X138430000Y-57150000D03*
X140970000Y-57150000D03*
D20*
X77470000Y-57150000D03*
D21*
X80010000Y-57150000D03*
X82550000Y-57150000D03*
X85090000Y-57150000D03*
X87630000Y-57150000D03*
X90170000Y-57150000D03*
D11*
X154305000Y-54610000D03*
M02*
