G04 #@! TF.FileFunction,Soldermask,Bot*
%FSLAX46Y46*%
G04 Gerber Fmt 4.6, Leading zero omitted, Abs format (unit mm)*
G04 Created by KiCad (PCBNEW 4.0.7) date 05/31/18 17:41:53*
%MOMM*%
%LPD*%
G01*
G04 APERTURE LIST*
%ADD10C,0.100000*%
%ADD11C,3.600000*%
%ADD12R,3.400000X3.400000*%
%ADD13C,3.400000*%
%ADD14O,2.900000X3.600000*%
%ADD15O,3.600000X2.900000*%
%ADD16R,2.100000X2.100000*%
%ADD17O,2.100000X2.100000*%
G04 APERTURE END LIST*
D10*
D11*
X134620000Y-105791000D03*
X63881000Y-54610000D03*
X83820000Y-105791000D03*
D12*
X67310000Y-99060000D03*
D13*
X72390000Y-99060000D03*
X77470000Y-99060000D03*
D12*
X90170000Y-99060000D03*
D13*
X95250000Y-99060000D03*
X100330000Y-99060000D03*
D12*
X118110000Y-99060000D03*
D13*
X123190000Y-99060000D03*
X128270000Y-99060000D03*
D12*
X140970000Y-99060000D03*
D13*
X146050000Y-99060000D03*
X151130000Y-99060000D03*
D14*
X66040000Y-76200000D03*
X78740000Y-76200000D03*
D15*
X72390000Y-73660000D03*
D14*
X78740000Y-88900000D03*
X66040000Y-88900000D03*
X88900000Y-76200000D03*
X101600000Y-76200000D03*
D15*
X95250000Y-73660000D03*
D14*
X101600000Y-88900000D03*
X88900000Y-88900000D03*
X116840000Y-76200000D03*
X129540000Y-76200000D03*
D15*
X123190000Y-73660000D03*
D14*
X129540000Y-88900000D03*
X116840000Y-88900000D03*
X139700000Y-76200000D03*
X152400000Y-76200000D03*
D15*
X146050000Y-73660000D03*
D14*
X152400000Y-88900000D03*
X139700000Y-88900000D03*
D16*
X128270000Y-57150000D03*
D17*
X130810000Y-57150000D03*
X133350000Y-57150000D03*
X135890000Y-57150000D03*
X138430000Y-57150000D03*
X140970000Y-57150000D03*
D16*
X77470000Y-57150000D03*
D17*
X80010000Y-57150000D03*
X82550000Y-57150000D03*
X85090000Y-57150000D03*
X87630000Y-57150000D03*
X90170000Y-57150000D03*
D11*
X154305000Y-54610000D03*
M02*
