M48
;DRILL file {KiCad (5.0.2)-1} date 4/1/2019 10:46:09 AM
;FORMAT={-:-/ absolute / inch / decimal}
FMAT,2
INCH,TZ
T1C0.0157
T2C0.0315
T3C0.0374
T4C0.0394
T5C0.0400
T6C0.0433
T7C0.0520
T8C0.1260
%
G90
G05
T1
X4.116Y-4.852
X4.241Y-4.89
X4.773Y-3.132
X4.868Y-3.506
T2
X4.6Y-3.4034
X4.663Y-3.2786
X4.663Y-3.377
X4.726Y-3.2522
X3.4074Y-3.8441
X3.4339Y-3.9071
X3.5323Y-3.9071
X3.5587Y-3.9701
X3.8323Y-3.8382
X3.9307Y-3.8382
X3.9323Y-2.9811
X3.9323Y-3.2811
X3.8634Y-4.1118
X3.8634Y-4.3047
X4.4484Y-4.0185
X4.4484Y-4.1169
X4.338Y-4.883
X4.638Y-4.883
X4.039Y-3.361
X4.039Y-3.461
X4.039Y-3.561
X4.039Y-3.661
X4.039Y-3.761
X4.039Y-3.861
X4.039Y-3.961
X4.039Y-4.061
X4.039Y-4.161
X4.039Y-4.261
X4.039Y-4.361
X4.039Y-4.461
X4.039Y-4.561
X4.039Y-4.661
X4.339Y-3.361
X4.339Y-3.461
X4.339Y-3.561
X4.339Y-3.661
X4.339Y-3.761
X4.339Y-3.861
X4.339Y-3.961
X4.339Y-4.061
X4.339Y-4.161
X4.339Y-4.261
X4.339Y-4.361
X4.339Y-4.461
X4.339Y-4.561
X4.339Y-4.661
X4.0382Y-4.789
X4.3382Y-4.789
X3.8343Y-3.9291
X3.9327Y-3.9291
T3
X3.813Y-3.4646
X3.813Y-3.563
X3.813Y-3.6614
X3.8524Y-4.5681
X3.8524Y-4.6665
X3.8524Y-4.765
T4
X4.37Y-3.055
X4.47Y-3.055
X4.57Y-3.055
X4.4843Y-4.448
X4.4843Y-4.548
X4.5843Y-4.448
X4.5843Y-4.548
X4.6843Y-4.448
X4.6843Y-4.548
X4.473Y-4.68
X4.473Y-4.78
X4.573Y-4.68
X4.573Y-4.78
X4.673Y-4.68
X4.673Y-4.78
X4.773Y-4.68
X4.773Y-4.78
X3.615Y-4.1929
X3.615Y-4.2929
X3.615Y-4.3929
X3.615Y-4.4929
X3.615Y-4.5929
X3.615Y-4.6929
T5
X4.6358Y-3.7551
X4.6358Y-3.8551
X4.6358Y-3.9551
X4.6358Y-4.0551
X4.6358Y-4.1551
X4.7358Y-3.7551
X4.7358Y-3.8551
X4.7358Y-3.9551
X4.7358Y-4.0551
X4.7358Y-4.1551
T6
X4.0543Y-2.9811
X4.0543Y-3.237
X4.2315Y-2.9811
X4.2315Y-3.237
T7
X3.5878Y-3.0122
X3.5878Y-3.2091
T8
X3.358Y-4.908
X4.81Y-2.884
T0
M30
