<svg xmlns="http://www.w3.org/2000/svg" width="1122.527" height="793.727" version="1.1" viewBox="0 0 116930 82680"><title>SVG Picture created as l298_dRIVER-F.Cu.svg date 2019/03/29 13:30:24</title><desc>Picture generated by PCBNEW</desc><g style="fill:#000;fill-opacity:0;stroke:#000;stroke-width:59.0551;stroke-opacity:1;stroke-linecap:round;stroke-linejoin:round"><path d="M26122 58818 L26122 45413"/><path d="M58385 58818 L26122 58818"/><path d="M58385 45413 L58385 58818"/><path d="M26122 45413 L58385 45413"/></g><g style="fill:#000;fill-opacity:1;stroke:#000;stroke-width:0;stroke-opacity:1;stroke-linecap:round;stroke-linejoin:round"><polyline style="fill-rule:evenodd" points="38125 53181 38125 52472 38834 52472 38834 53181 38125 53181"/></g><g style="fill:#000;fill-opacity:0;stroke:#000;stroke-width:708.661;stroke-opacity:1;stroke-linecap:round;stroke-linejoin:round"><path d="M38980 50826 L38980 50826"/><path d="M39480 52826 L39480 52826"/><path d="M39980 50826 L39980 50826"/><path d="M40480 52826 L40480 52826"/><path d="M40980 50826 L40980 50826"/><path d="M41480 52826 L41480 52826"/><path d="M41980 50826 L41980 50826"/><path d="M42480 52826 L42480 52826"/><path d="M42980 50826 L42980 50826"/><path d="M43480 52826 L43480 52826"/><path d="M43980 50826 L43980 50826"/><path d="M44480 52826 L44480 52826"/><path d="M44980 50826 L44980 50826"/><path d="M45480 52826 L45480 52826"/></g><g style="fill:#000;fill-opacity:1;stroke:#000;stroke-width:0;stroke-opacity:1;stroke-linecap:round;stroke-linejoin:round"><polyline style="fill-rule:evenodd" points="56330 52122 54771 52122 54771 51342 56330 51342 56330 52122"/></g><g style="fill:#000;fill-opacity:0;stroke:#000;stroke-width:779.528;stroke-opacity:1;stroke-linecap:round;stroke-linejoin:round"><path d="M55161 49763 L55940 49763"/></g><g style="fill:#000;fill-opacity:1;stroke:#000;stroke-width:0;stroke-opacity:1;stroke-linecap:round;stroke-linejoin:round"><circle cx="36909.4" cy="48917.3" r="314.961"/></g><g style="fill:#000;fill-opacity:1;stroke:#000;stroke-width:0;stroke-opacity:1;stroke-linecap:round;stroke-linejoin:round"><circle cx="36909.4" cy="47933.1" r="314.961"/></g><g style="fill:#000;fill-opacity:1;stroke:#000;stroke-width:0;stroke-opacity:1;stroke-linecap:round;stroke-linejoin:round"><polyline style="fill-rule:evenodd" points="36259 53295 35393 53295 35393 52429 36259 52429 36259 53295"/></g><g style="fill:#000;fill-opacity:0;stroke:#000;stroke-width:866.142;stroke-opacity:1;stroke-linecap:round;stroke-linejoin:round"><path d="M35826 49862 L35826 49862"/><path d="M32007 51996 L32007 51996"/></g><g style="fill:#000;fill-opacity:1;stroke:#000;stroke-width:0;stroke-opacity:1;stroke-linecap:round;stroke-linejoin:round"><polyline style="fill-rule:evenodd" points="31574 48562 32440 48562 32440 49429 31574 49429 31574 48562"/></g><g style="fill:#000;fill-opacity:0;stroke:#000;stroke-width:866.142;stroke-opacity:1;stroke-linecap:round;stroke-linejoin:round"><path d="M34547 52862 L34547 52862"/></g><g style="fill:#000;fill-opacity:1;stroke:#000;stroke-width:0;stroke-opacity:1;stroke-linecap:round;stroke-linejoin:round"><polyline style="fill-rule:evenodd" points="34114 49429 34980 49429 34980 50295 34114 50295 34114 49429"/><polyline style="fill-rule:evenodd" points="33700 52409 32834 52409 32834 51543 33700 51543 33700 52409"/></g><g style="fill:#000;fill-opacity:0;stroke:#000;stroke-width:866.142;stroke-opacity:1;stroke-linecap:round;stroke-linejoin:round"><path d="M33267 48976 L33267 48976"/></g><g style="fill:#000;fill-opacity:1;stroke:#000;stroke-width:0;stroke-opacity:1;stroke-linecap:round;stroke-linejoin:round"><polyline style="fill-rule:evenodd" points="50688 55570 51318 55570 51318 56200 50688 56200 50688 55570"/><circle cx="51003.9" cy="56870.1" r="314.961"/></g><g style="fill:#000;fill-opacity:1;stroke:#000;stroke-width:0;stroke-opacity:1;stroke-linecap:round;stroke-linejoin:round"><polyline style="fill-rule:evenodd" points="51318 55306 51948 55306 51948 55936 51318 55936 51318 55306"/><circle cx="50374" cy="57134.2" r="314.961"/></g><g style="fill:#000;fill-opacity:1;stroke:#000;stroke-width:0;stroke-opacity:1;stroke-linecap:round;stroke-linejoin:round"><polyline style="fill-rule:evenodd" points="32255 57066 31586 57066 31586 56397 32255 56397 32255 57066"/></g><g style="fill:#000;fill-opacity:0;stroke:#000;stroke-width:669.291;stroke-opacity:1;stroke-linecap:round;stroke-linejoin:round"><path d="M32921 56732 L32921 56732"/><path d="M33921 56732 L33921 56732"/><path d="M34921 56732 L34921 56732"/><path d="M35921 56732 L35921 56732"/></g><g style="fill:#000;fill-opacity:1;stroke:#000;stroke-width:0;stroke-opacity:1;stroke-linecap:round;stroke-linejoin:round"><polyline style="fill-rule:evenodd" points="28059 49265 29618 49265 29618 50045 28059 50045 28059 49265"/></g><g style="fill:#000;fill-opacity:0;stroke:#000;stroke-width:779.528;stroke-opacity:1;stroke-linecap:round;stroke-linejoin:round"><path d="M29228 51624 L28448 51624"/></g><g style="fill:#000;fill-opacity:1;stroke:#000;stroke-width:0;stroke-opacity:1;stroke-linecap:round;stroke-linejoin:round"><polyline style="fill-rule:evenodd" points="48169 49490 49035 49490 49035 50356 48169 50356 48169 49490"/></g><g style="fill:#000;fill-opacity:0;stroke:#000;stroke-width:866.142;stroke-opacity:1;stroke-linecap:round;stroke-linejoin:round"><path d="M48602 52923 L48602 52923"/><path d="M57665 53543 L57665 53543"/></g><g style="fill:#000;fill-opacity:1;stroke:#000;stroke-width:0;stroke-opacity:1;stroke-linecap:round;stroke-linejoin:round"><polyline style="fill-rule:evenodd" points="54232 53976 54232 53110 55098 53110 55098 53976 54232 53976"/><polyline style="fill-rule:evenodd" points="50344 53395 49478 53395 49478 52529 50344 52529 50344 53395"/></g><g style="fill:#000;fill-opacity:0;stroke:#000;stroke-width:866.142;stroke-opacity:1;stroke-linecap:round;stroke-linejoin:round"><path d="M49911 49962 L49911 49962"/><path d="M52490 48917 L52490 48917"/></g><g style="fill:#000;fill-opacity:1;stroke:#000;stroke-width:0;stroke-opacity:1;stroke-linecap:round;stroke-linejoin:round"><polyline style="fill-rule:evenodd" points="52923 52350 52057 52350 52057 51484 52923 51484 52923 52350"/><polyline style="fill-rule:evenodd" points="50728 48513 51594 48513 51594 49379 50728 49379 50728 48513"/></g><g style="fill:#000;fill-opacity:0;stroke:#000;stroke-width:866.142;stroke-opacity:1;stroke-linecap:round;stroke-linejoin:round"><path d="M51161 51946 L51161 51946"/></g><g style="fill:#000;fill-opacity:1;stroke:#000;stroke-width:0;stroke-opacity:1;stroke-linecap:round;stroke-linejoin:round"><circle cx="47204.7" cy="48011.8" r="314.961"/></g><g style="fill:#000;fill-opacity:1;stroke:#000;stroke-width:0;stroke-opacity:1;stroke-linecap:round;stroke-linejoin:round"><circle cx="47204.7" cy="48996.1" r="314.961"/></g><g style="fill:#000;fill-opacity:1;stroke:#000;stroke-width:0;stroke-opacity:1;stroke-linecap:round;stroke-linejoin:round"><circle cx="46259.8" cy="56417.3" r="314.961"/></g><g style="fill:#000;fill-opacity:1;stroke:#000;stroke-width:0;stroke-opacity:1;stroke-linecap:round;stroke-linejoin:round"><circle cx="46259.8" cy="55433.1" r="314.961"/></g><g style="fill:#000;fill-opacity:1;stroke:#000;stroke-width:0;stroke-opacity:1;stroke-linecap:round;stroke-linejoin:round"><circle cx="37224.4" cy="55472.4" r="314.961"/></g><g style="fill:#000;fill-opacity:1;stroke:#000;stroke-width:0;stroke-opacity:1;stroke-linecap:round;stroke-linejoin:round"><circle cx="37224.4" cy="56456.7" r="314.961"/></g><g style="fill:#000;fill-opacity:1;stroke:#000;stroke-width:0;stroke-opacity:1;stroke-linecap:round;stroke-linejoin:round"><polyline style="fill-rule:evenodd" points="38818 54763 38149 54763 38149 54094 38818 54094 38818 54763"/></g><g style="fill:#000;fill-opacity:0;stroke:#000;stroke-width:669.291;stroke-opacity:1;stroke-linecap:round;stroke-linejoin:round"><path d="M39484 54429 L39484 54429"/><path d="M41003 55019 L41003 55019"/><path d="M41003 56019 L41003 56019"/></g><g style="fill:#000;fill-opacity:1;stroke:#000;stroke-width:0;stroke-opacity:1;stroke-linecap:round;stroke-linejoin:round"><polyline style="fill-rule:evenodd" points="41338 56685 41338 57354 40669 57354 40669 56685 41338 56685"/><polyline style="fill-rule:evenodd" points="43110 55364 43110 54694 43779 54694 43779 55364 43110 55364"/></g><g style="fill:#000;fill-opacity:0;stroke:#000;stroke-width:669.291;stroke-opacity:1;stroke-linecap:round;stroke-linejoin:round"><path d="M43444 56029 L43444 56029"/><path d="M43444 57029 L43444 57029"/><path d="M31984 54822 L31984 54822"/><path d="M32984 54822 L32984 54822"/><path d="M33984 54822 L33984 54822"/><path d="M34984 54822 L34984 54822"/></g><g style="fill:#000;fill-opacity:1;stroke:#000;stroke-width:0;stroke-opacity:1;stroke-linecap:round;stroke-linejoin:round"><polyline style="fill-rule:evenodd" points="35649 54488 36318 54488 36318 55157 35649 55157 35649 54488"/><polyline style="fill-rule:evenodd" points="30767 57185 30059 57185 30059 56476 30767 56476 30767 57185"/><circle cx="30413.4" cy="55830.7" r="354.331"/></g><g style="fill:#000;fill-opacity:1;stroke:#000;stroke-width:0;stroke-opacity:1;stroke-linecap:round;stroke-linejoin:round"><polyline style="fill-rule:evenodd" points="46909 54703 47696 54703 47696 55453 46909 55453 46909 54703"/></g><g style="fill:#000;fill-opacity:0;stroke:#000;stroke-width:750;stroke-opacity:1;stroke-linecap:round;stroke-linejoin:round"><path d="M47321 56078 L47284 56078"/><path d="M47321 57078 L47284 57078"/></g><g style="fill:#000;fill-opacity:1;stroke:#000;stroke-width:0;stroke-opacity:1;stroke-linecap:round;stroke-linejoin:round"><circle cx="37066.9" cy="52822.8" r="314.961"/></g><g style="fill:#000;fill-opacity:0;stroke:#000;stroke-width:629.921;stroke-opacity:1;stroke-linecap:round;stroke-linejoin:round"><path d="M37066 49822 L37066 49822"/><path d="M47214 49834 L47214 49834"/></g><g style="fill:#000;fill-opacity:1;stroke:#000;stroke-width:0;stroke-opacity:1;stroke-linecap:round;stroke-linejoin:round"><circle cx="47214.6" cy="52834.6" r="314.961"/></g><g style="fill:#000;fill-opacity:1;stroke:#000;stroke-width:0;stroke-opacity:1;stroke-linecap:round;stroke-linejoin:round"><circle cx="34901.6" cy="55767.7" r="314.961"/></g><g style="fill:#000;fill-opacity:0;stroke:#000;stroke-width:629.921;stroke-opacity:1;stroke-linecap:round;stroke-linejoin:round"><path d="M31901 55767 L31901 55767"/></g><g style="fill:#000;fill-opacity:1;stroke:#000;stroke-width:0;stroke-opacity:1;stroke-linecap:round;stroke-linejoin:round"><polyline style="fill-rule:evenodd" points="56409 58027 54850 58027 54850 57248 56409 57248 56409 58027"/></g><g style="fill:#000;fill-opacity:0;stroke:#000;stroke-width:779.528;stroke-opacity:1;stroke-linecap:round;stroke-linejoin:round"><path d="M55240 55669 L56019 55669"/></g><g style="fill:#000;fill-opacity:1;stroke:#000;stroke-width:0;stroke-opacity:1;stroke-linecap:round;stroke-linejoin:round"><circle cx="53622" cy="48956.7" r="236.22"/></g><g style="fill:#000;fill-opacity:1;stroke:#000;stroke-width:0;stroke-opacity:1;stroke-linecap:round;stroke-linejoin:round"><circle cx="53622" cy="47126" r="236.22"/></g><g style="fill:#000;fill-opacity:1;stroke:#000;stroke-width:0;stroke-opacity:1;stroke-linecap:round;stroke-linejoin:round"><circle cx="45137.8" cy="53700.8" r="236.22"/></g><g style="fill:#000;fill-opacity:1;stroke:#000;stroke-width:0;stroke-opacity:1;stroke-linecap:round;stroke-linejoin:round"><circle cx="39527.6" cy="53641.7" r="236.22"/></g><g style="fill:#000;fill-opacity:0;stroke:#000;stroke-width:236.22;stroke-opacity:1;stroke-linecap:round;stroke-linejoin:round"><path d="M53622 48956 L53622 48622"/><path d="M53622 48622 L53622 47125"/><path d="M44803 53700 L44744 53641"/><path d="M45137 53700 L44803 53700"/><path d="M44744 53641 L39527 53641"/></g><g style="fill:#fff;fill-opacity:1;stroke:#fff;stroke-width:0;stroke-opacity:1;stroke-linecap:round;stroke-linejoin:round"><circle cx="53622" cy="48956.7" r="157.48"/></g><g style="fill:#fff;fill-opacity:1;stroke:#fff;stroke-width:0;stroke-opacity:1;stroke-linecap:round;stroke-linejoin:round"><circle cx="53622" cy="47126" r="157.48"/></g><g style="fill:#fff;fill-opacity:1;stroke:#fff;stroke-width:0;stroke-opacity:1;stroke-linecap:round;stroke-linejoin:round"><circle cx="45137.8" cy="53700.8" r="157.48"/></g><g style="fill:#fff;fill-opacity:1;stroke:#fff;stroke-width:0;stroke-opacity:1;stroke-linecap:round;stroke-linejoin:round"><circle cx="39527.6" cy="53641.7" r="157.48"/></g><g style="fill:#fff;fill-opacity:1;stroke:#fff;stroke-width:0;stroke-opacity:1;stroke-linecap:round;stroke-linejoin:round"><circle cx="38480.3" cy="52826.8" r="196.85"/></g><g style="fill:#fff;fill-opacity:1;stroke:#fff;stroke-width:0;stroke-opacity:1;stroke-linecap:round;stroke-linejoin:round"><circle cx="38980.3" cy="50826.8" r="196.85"/></g><g style="fill:#fff;fill-opacity:1;stroke:#fff;stroke-width:0;stroke-opacity:1;stroke-linecap:round;stroke-linejoin:round"><circle cx="39480.3" cy="52826.8" r="196.85"/></g><g style="fill:#fff;fill-opacity:1;stroke:#fff;stroke-width:0;stroke-opacity:1;stroke-linecap:round;stroke-linejoin:round"><circle cx="39980.3" cy="50826.8" r="196.85"/></g><g style="fill:#fff;fill-opacity:1;stroke:#fff;stroke-width:0;stroke-opacity:1;stroke-linecap:round;stroke-linejoin:round"><circle cx="40480.3" cy="52826.8" r="196.85"/></g><g style="fill:#fff;fill-opacity:1;stroke:#fff;stroke-width:0;stroke-opacity:1;stroke-linecap:round;stroke-linejoin:round"><circle cx="40980.3" cy="50826.8" r="196.85"/></g><g style="fill:#fff;fill-opacity:1;stroke:#fff;stroke-width:0;stroke-opacity:1;stroke-linecap:round;stroke-linejoin:round"><circle cx="41480.3" cy="52826.8" r="196.85"/></g><g style="fill:#fff;fill-opacity:1;stroke:#fff;stroke-width:0;stroke-opacity:1;stroke-linecap:round;stroke-linejoin:round"><circle cx="41980.3" cy="50826.8" r="196.85"/></g><g style="fill:#fff;fill-opacity:1;stroke:#fff;stroke-width:0;stroke-opacity:1;stroke-linecap:round;stroke-linejoin:round"><circle cx="42480.3" cy="52826.8" r="196.85"/></g><g style="fill:#fff;fill-opacity:1;stroke:#fff;stroke-width:0;stroke-opacity:1;stroke-linecap:round;stroke-linejoin:round"><circle cx="42980.3" cy="50826.8" r="196.85"/></g><g style="fill:#fff;fill-opacity:1;stroke:#fff;stroke-width:0;stroke-opacity:1;stroke-linecap:round;stroke-linejoin:round"><circle cx="43480.3" cy="52826.8" r="196.85"/></g><g style="fill:#fff;fill-opacity:1;stroke:#fff;stroke-width:0;stroke-opacity:1;stroke-linecap:round;stroke-linejoin:round"><circle cx="43980.3" cy="50826.8" r="196.85"/></g><g style="fill:#fff;fill-opacity:1;stroke:#fff;stroke-width:0;stroke-opacity:1;stroke-linecap:round;stroke-linejoin:round"><circle cx="44480.3" cy="52826.8" r="196.85"/></g><g style="fill:#fff;fill-opacity:1;stroke:#fff;stroke-width:0;stroke-opacity:1;stroke-linecap:round;stroke-linejoin:round"><circle cx="44980.3" cy="50826.8" r="196.85"/></g><g style="fill:#fff;fill-opacity:1;stroke:#fff;stroke-width:0;stroke-opacity:1;stroke-linecap:round;stroke-linejoin:round"><circle cx="45480.3" cy="52826.8" r="196.85"/></g><g style="fill:#fff;fill-opacity:1;stroke:#fff;stroke-width:0;stroke-opacity:1;stroke-linecap:round;stroke-linejoin:round"><circle cx="55551.2" cy="51732.3" r="259.843"/></g><g style="fill:#fff;fill-opacity:1;stroke:#fff;stroke-width:0;stroke-opacity:1;stroke-linecap:round;stroke-linejoin:round"><circle cx="55551.2" cy="49763.8" r="259.843"/></g><g style="fill:#fff;fill-opacity:1;stroke:#fff;stroke-width:0;stroke-opacity:1;stroke-linecap:round;stroke-linejoin:round"><circle cx="36909.4" cy="48917.3" r="157.48"/></g><g style="fill:#fff;fill-opacity:1;stroke:#fff;stroke-width:0;stroke-opacity:1;stroke-linecap:round;stroke-linejoin:round"><circle cx="36909.4" cy="47933.1" r="157.48"/></g><g style="fill:#fff;fill-opacity:1;stroke:#fff;stroke-width:0;stroke-opacity:1;stroke-linecap:round;stroke-linejoin:round"><circle cx="35826.8" cy="52862.2" r="216.535"/></g><g style="fill:#fff;fill-opacity:1;stroke:#fff;stroke-width:0;stroke-opacity:1;stroke-linecap:round;stroke-linejoin:round"><circle cx="35826.8" cy="49862.2" r="216.535"/></g><g style="fill:#fff;fill-opacity:1;stroke:#fff;stroke-width:0;stroke-opacity:1;stroke-linecap:round;stroke-linejoin:round"><circle cx="32007.9" cy="51996.1" r="216.535"/></g><g style="fill:#fff;fill-opacity:1;stroke:#fff;stroke-width:0;stroke-opacity:1;stroke-linecap:round;stroke-linejoin:round"><circle cx="32007.9" cy="48996.1" r="216.535"/></g><g style="fill:#fff;fill-opacity:1;stroke:#fff;stroke-width:0;stroke-opacity:1;stroke-linecap:round;stroke-linejoin:round"><circle cx="34547.2" cy="52862.2" r="216.535"/></g><g style="fill:#fff;fill-opacity:1;stroke:#fff;stroke-width:0;stroke-opacity:1;stroke-linecap:round;stroke-linejoin:round"><circle cx="34547.2" cy="49862.2" r="216.535"/></g><g style="fill:#fff;fill-opacity:1;stroke:#fff;stroke-width:0;stroke-opacity:1;stroke-linecap:round;stroke-linejoin:round"><circle cx="33267.7" cy="51976.4" r="216.535"/></g><g style="fill:#fff;fill-opacity:1;stroke:#fff;stroke-width:0;stroke-opacity:1;stroke-linecap:round;stroke-linejoin:round"><circle cx="33267.7" cy="48976.4" r="216.535"/></g><g style="fill:#fff;fill-opacity:1;stroke:#fff;stroke-width:0;stroke-opacity:1;stroke-linecap:round;stroke-linejoin:round"><circle cx="51003.9" cy="55885.8" r="157.48"/></g><g style="fill:#fff;fill-opacity:1;stroke:#fff;stroke-width:0;stroke-opacity:1;stroke-linecap:round;stroke-linejoin:round"><circle cx="51003.9" cy="56870.1" r="157.48"/></g><g style="fill:#fff;fill-opacity:1;stroke:#fff;stroke-width:0;stroke-opacity:1;stroke-linecap:round;stroke-linejoin:round"><circle cx="51633.9" cy="55621.7" r="157.48"/></g><g style="fill:#fff;fill-opacity:1;stroke:#fff;stroke-width:0;stroke-opacity:1;stroke-linecap:round;stroke-linejoin:round"><circle cx="50374" cy="57134.2" r="157.48"/></g><g style="fill:#fff;fill-opacity:1;stroke:#fff;stroke-width:0;stroke-opacity:1;stroke-linecap:round;stroke-linejoin:round"><circle cx="31921.3" cy="56732.3" r="196.85"/></g><g style="fill:#fff;fill-opacity:1;stroke:#fff;stroke-width:0;stroke-opacity:1;stroke-linecap:round;stroke-linejoin:round"><circle cx="32921.3" cy="56732.3" r="196.85"/></g><g style="fill:#fff;fill-opacity:1;stroke:#fff;stroke-width:0;stroke-opacity:1;stroke-linecap:round;stroke-linejoin:round"><circle cx="33921.3" cy="56732.3" r="196.85"/></g><g style="fill:#fff;fill-opacity:1;stroke:#fff;stroke-width:0;stroke-opacity:1;stroke-linecap:round;stroke-linejoin:round"><circle cx="34921.3" cy="56732.3" r="196.85"/></g><g style="fill:#fff;fill-opacity:1;stroke:#fff;stroke-width:0;stroke-opacity:1;stroke-linecap:round;stroke-linejoin:round"><circle cx="35921.3" cy="56732.3" r="196.85"/></g><g style="fill:#fff;fill-opacity:1;stroke:#fff;stroke-width:0;stroke-opacity:1;stroke-linecap:round;stroke-linejoin:round"><circle cx="28838.6" cy="49655.5" r="259.843"/></g><g style="fill:#fff;fill-opacity:1;stroke:#fff;stroke-width:0;stroke-opacity:1;stroke-linecap:round;stroke-linejoin:round"><circle cx="28838.6" cy="51624" r="259.843"/></g><g style="fill:#fff;fill-opacity:1;stroke:#fff;stroke-width:0;stroke-opacity:1;stroke-linecap:round;stroke-linejoin:round"><circle cx="48602.4" cy="49923.2" r="216.535"/></g><g style="fill:#fff;fill-opacity:1;stroke:#fff;stroke-width:0;stroke-opacity:1;stroke-linecap:round;stroke-linejoin:round"><circle cx="48602.4" cy="52923.2" r="216.535"/></g><g style="fill:#fff;fill-opacity:1;stroke:#fff;stroke-width:0;stroke-opacity:1;stroke-linecap:round;stroke-linejoin:round"><circle cx="57665.4" cy="53543.3" r="216.535"/></g><g style="fill:#fff;fill-opacity:1;stroke:#fff;stroke-width:0;stroke-opacity:1;stroke-linecap:round;stroke-linejoin:round"><circle cx="54665.4" cy="53543.3" r="216.535"/></g><g style="fill:#fff;fill-opacity:1;stroke:#fff;stroke-width:0;stroke-opacity:1;stroke-linecap:round;stroke-linejoin:round"><circle cx="49911.4" cy="52962.6" r="216.535"/></g><g style="fill:#fff;fill-opacity:1;stroke:#fff;stroke-width:0;stroke-opacity:1;stroke-linecap:round;stroke-linejoin:round"><circle cx="49911.4" cy="49962.6" r="216.535"/></g><g style="fill:#fff;fill-opacity:1;stroke:#fff;stroke-width:0;stroke-opacity:1;stroke-linecap:round;stroke-linejoin:round"><circle cx="52490.2" cy="48917.3" r="216.535"/></g><g style="fill:#fff;fill-opacity:1;stroke:#fff;stroke-width:0;stroke-opacity:1;stroke-linecap:round;stroke-linejoin:round"><circle cx="52490.2" cy="51917.3" r="216.535"/></g><g style="fill:#fff;fill-opacity:1;stroke:#fff;stroke-width:0;stroke-opacity:1;stroke-linecap:round;stroke-linejoin:round"><circle cx="51161.4" cy="48946.9" r="216.535"/></g><g style="fill:#fff;fill-opacity:1;stroke:#fff;stroke-width:0;stroke-opacity:1;stroke-linecap:round;stroke-linejoin:round"><circle cx="51161.4" cy="51946.9" r="216.535"/></g><g style="fill:#fff;fill-opacity:1;stroke:#fff;stroke-width:0;stroke-opacity:1;stroke-linecap:round;stroke-linejoin:round"><circle cx="47204.7" cy="48011.8" r="157.48"/></g><g style="fill:#fff;fill-opacity:1;stroke:#fff;stroke-width:0;stroke-opacity:1;stroke-linecap:round;stroke-linejoin:round"><circle cx="47204.7" cy="48996.1" r="157.48"/></g><g style="fill:#fff;fill-opacity:1;stroke:#fff;stroke-width:0;stroke-opacity:1;stroke-linecap:round;stroke-linejoin:round"><circle cx="46259.8" cy="56417.3" r="157.48"/></g><g style="fill:#fff;fill-opacity:1;stroke:#fff;stroke-width:0;stroke-opacity:1;stroke-linecap:round;stroke-linejoin:round"><circle cx="46259.8" cy="55433.1" r="157.48"/></g><g style="fill:#fff;fill-opacity:1;stroke:#fff;stroke-width:0;stroke-opacity:1;stroke-linecap:round;stroke-linejoin:round"><circle cx="37224.4" cy="55472.4" r="157.48"/></g><g style="fill:#fff;fill-opacity:1;stroke:#fff;stroke-width:0;stroke-opacity:1;stroke-linecap:round;stroke-linejoin:round"><circle cx="37224.4" cy="56456.7" r="157.48"/></g><g style="fill:#fff;fill-opacity:1;stroke:#fff;stroke-width:0;stroke-opacity:1;stroke-linecap:round;stroke-linejoin:round"><circle cx="38484.3" cy="54429.1" r="196.85"/></g><g style="fill:#fff;fill-opacity:1;stroke:#fff;stroke-width:0;stroke-opacity:1;stroke-linecap:round;stroke-linejoin:round"><circle cx="39484.3" cy="54429.1" r="196.85"/></g><g style="fill:#fff;fill-opacity:1;stroke:#fff;stroke-width:0;stroke-opacity:1;stroke-linecap:round;stroke-linejoin:round"><circle cx="41003.9" cy="55019.7" r="196.85"/></g><g style="fill:#fff;fill-opacity:1;stroke:#fff;stroke-width:0;stroke-opacity:1;stroke-linecap:round;stroke-linejoin:round"><circle cx="41003.9" cy="56019.7" r="196.85"/></g><g style="fill:#fff;fill-opacity:1;stroke:#fff;stroke-width:0;stroke-opacity:1;stroke-linecap:round;stroke-linejoin:round"><circle cx="41003.9" cy="57019.7" r="196.85"/></g><g style="fill:#fff;fill-opacity:1;stroke:#fff;stroke-width:0;stroke-opacity:1;stroke-linecap:round;stroke-linejoin:round"><circle cx="43444.9" cy="55029.5" r="196.85"/></g><g style="fill:#fff;fill-opacity:1;stroke:#fff;stroke-width:0;stroke-opacity:1;stroke-linecap:round;stroke-linejoin:round"><circle cx="43444.9" cy="56029.5" r="196.85"/></g><g style="fill:#fff;fill-opacity:1;stroke:#fff;stroke-width:0;stroke-opacity:1;stroke-linecap:round;stroke-linejoin:round"><circle cx="43444.9" cy="57029.5" r="196.85"/></g><g style="fill:#fff;fill-opacity:1;stroke:#fff;stroke-width:0;stroke-opacity:1;stroke-linecap:round;stroke-linejoin:round"><circle cx="31984.3" cy="54822.8" r="196.85"/></g><g style="fill:#fff;fill-opacity:1;stroke:#fff;stroke-width:0;stroke-opacity:1;stroke-linecap:round;stroke-linejoin:round"><circle cx="32984.3" cy="54822.8" r="196.85"/></g><g style="fill:#fff;fill-opacity:1;stroke:#fff;stroke-width:0;stroke-opacity:1;stroke-linecap:round;stroke-linejoin:round"><circle cx="33984.3" cy="54822.8" r="196.85"/></g><g style="fill:#fff;fill-opacity:1;stroke:#fff;stroke-width:0;stroke-opacity:1;stroke-linecap:round;stroke-linejoin:round"><circle cx="34984.3" cy="54822.8" r="196.85"/></g><g style="fill:#fff;fill-opacity:1;stroke:#fff;stroke-width:0;stroke-opacity:1;stroke-linecap:round;stroke-linejoin:round"><circle cx="35984.3" cy="54822.8" r="196.85"/></g><g style="fill:#fff;fill-opacity:1;stroke:#fff;stroke-width:0;stroke-opacity:1;stroke-linecap:round;stroke-linejoin:round"><circle cx="30413.4" cy="56830.7" r="177.165"/></g><g style="fill:#fff;fill-opacity:1;stroke:#fff;stroke-width:0;stroke-opacity:1;stroke-linecap:round;stroke-linejoin:round"><circle cx="30413.4" cy="55830.7" r="177.165"/></g><g style="fill:#fff;fill-opacity:1;stroke:#fff;stroke-width:0;stroke-opacity:1;stroke-linecap:round;stroke-linejoin:round"><circle cx="90529.5" cy="26482.3" r="629.921"/></g><g style="fill:#fff;fill-opacity:1;stroke:#fff;stroke-width:0;stroke-opacity:1;stroke-linecap:round;stroke-linejoin:round"><circle cx="95891.7" cy="21683.1" r="629.921"/></g><g style="fill:#fff;fill-opacity:1;stroke:#fff;stroke-width:0;stroke-opacity:1;stroke-linecap:round;stroke-linejoin:round"><circle cx="94454.7" cy="24124" r="629.921"/></g><g style="fill:#fff;fill-opacity:1;stroke:#fff;stroke-width:0;stroke-opacity:1;stroke-linecap:round;stroke-linejoin:round"><circle cx="92950.8" cy="26545.3" r="629.921"/></g><g style="fill:#fff;fill-opacity:1;stroke:#fff;stroke-width:0;stroke-opacity:1;stroke-linecap:round;stroke-linejoin:round"><circle cx="47303.1" cy="55078.7" r="216.535"/></g><g style="fill:#fff;fill-opacity:1;stroke:#fff;stroke-width:0;stroke-opacity:1;stroke-linecap:round;stroke-linejoin:round"><circle cx="47303.1" cy="56078.7" r="216.535"/></g><g style="fill:#fff;fill-opacity:1;stroke:#fff;stroke-width:0;stroke-opacity:1;stroke-linecap:round;stroke-linejoin:round"><circle cx="47303.1" cy="57078.7" r="216.535"/></g><g style="fill:#fff;fill-opacity:1;stroke:#fff;stroke-width:0;stroke-opacity:1;stroke-linecap:round;stroke-linejoin:round"><circle cx="37066.9" cy="52822.8" r="157.48"/></g><g style="fill:#fff;fill-opacity:1;stroke:#fff;stroke-width:0;stroke-opacity:1;stroke-linecap:round;stroke-linejoin:round"><circle cx="37066.9" cy="49822.8" r="157.48"/></g><g style="fill:#fff;fill-opacity:1;stroke:#fff;stroke-width:0;stroke-opacity:1;stroke-linecap:round;stroke-linejoin:round"><circle cx="47214.6" cy="49834.6" r="157.48"/></g><g style="fill:#fff;fill-opacity:1;stroke:#fff;stroke-width:0;stroke-opacity:1;stroke-linecap:round;stroke-linejoin:round"><circle cx="47214.6" cy="52834.6" r="157.48"/></g><g style="fill:#fff;fill-opacity:1;stroke:#fff;stroke-width:0;stroke-opacity:1;stroke-linecap:round;stroke-linejoin:round"><circle cx="34901.6" cy="55767.7" r="157.48"/></g><g style="fill:#fff;fill-opacity:1;stroke:#fff;stroke-width:0;stroke-opacity:1;stroke-linecap:round;stroke-linejoin:round"><circle cx="31901.6" cy="55767.7" r="157.48"/></g><g style="fill:#fff;fill-opacity:1;stroke:#fff;stroke-width:0;stroke-opacity:1;stroke-linecap:round;stroke-linejoin:round"><circle cx="55629.9" cy="57637.8" r="259.843"/></g><g style="fill:#fff;fill-opacity:1;stroke:#fff;stroke-width:0;stroke-opacity:1;stroke-linecap:round;stroke-linejoin:round"><circle cx="55629.9" cy="55669.3" r="259.843"/></g></svg>