M48
;DRILL file {KiCad (5.0.2)-1} date 3/29/2019 1:30:26 PM
;FORMAT={-:-/ absolute / inch / decimal}
FMAT,2
INCH,TZ
T1C0.0315
T2C0.0354
T3C0.0394
T4C0.0433
T5C0.0520
%
G90
G05
T1
X3.9528Y-5.3642
X4.5138Y-5.3701
X5.3622Y-4.7126
X5.3622Y-4.8957
X4.7215Y-4.9835
X4.7215Y-5.2835
X3.1902Y-5.5768
X3.4902Y-5.5768
X5.0374Y-5.7134
X5.1004Y-5.5886
X5.1004Y-5.687
X5.1634Y-5.5622
X4.7205Y-4.8012
X4.7205Y-4.8996
X3.7067Y-4.9823
X3.7067Y-5.2823
X3.7224Y-5.5472
X3.7224Y-5.6457
X4.626Y-5.5433
X4.626Y-5.6417
X3.6909Y-4.7933
X3.6909Y-4.8917
T2
X3.0413Y-5.5831
X3.0413Y-5.6831
T3
X3.8484Y-5.4429
X3.9484Y-5.4429
X3.1984Y-5.4823
X3.2984Y-5.4823
X3.3984Y-5.4823
X3.4984Y-5.4823
X3.5984Y-5.4823
X3.1921Y-5.6732
X3.2921Y-5.6732
X3.3921Y-5.6732
X3.4921Y-5.6732
X3.5921Y-5.6732
X4.3445Y-5.503
X4.3445Y-5.603
X4.3445Y-5.703
X3.848Y-5.2827
X3.898Y-5.0827
X3.948Y-5.2827
X3.998Y-5.0827
X4.048Y-5.2827
X4.098Y-5.0827
X4.148Y-5.2827
X4.198Y-5.0827
X4.248Y-5.2827
X4.298Y-5.0827
X4.348Y-5.2827
X4.398Y-5.0827
X4.448Y-5.2827
X4.498Y-5.0827
X4.548Y-5.2827
X4.1004Y-5.502
X4.1004Y-5.602
X4.1004Y-5.702
T4
X4.7303Y-5.5079
X4.7303Y-5.6079
X4.7303Y-5.7079
X3.5827Y-4.9862
X3.5827Y-5.2862
X4.9911Y-4.9963
X4.9911Y-5.2963
X5.249Y-4.8917
X5.249Y-5.1917
X3.2008Y-4.8996
X3.2008Y-5.1996
X4.8602Y-4.9923
X4.8602Y-5.2923
X5.4665Y-5.3543
X5.7665Y-5.3543
X3.3268Y-4.8976
X3.3268Y-5.1976
X3.4547Y-4.9862
X3.4547Y-5.2862
X5.1161Y-4.8947
X5.1161Y-5.1947
T5
X2.8839Y-4.9656
X2.8839Y-5.1624
X5.5551Y-4.9764
X5.5551Y-5.1732
X5.563Y-5.5669
X5.563Y-5.7638
T0
M30
