<?xml version="1.0" standalone="no"?>
 <!DOCTYPE svg PUBLIC "-//W3C//DTD SVG 1.1//EN" 
 "http://www.w3.org/Graphics/SVG/1.1/DTD/svg11.dtd"> 
<svg xmlns="http://www.w3.org/2000/svg" version="1.1" 
    width="29.7002cm" height="21.0007cm" viewBox="0 0 116930 82680 ">
<title>SVG Picture created as -5V SUPPLY-B.Cu.svg date 2018/06/13 11:43:31 </title>
  <desc>Picture generated by PCBNEW </desc>
<g style="fill:#000000; fill-opacity:1;stroke:#000000; stroke-opacity:1;
stroke-linecap:round; stroke-linejoin:round; "
 transform="translate(0 0) scale(1 1)">
</g>
<g style="fill:#000000; fill-opacity:0.0; 
stroke:#000000; stroke-width:-0.000393701; stroke-opacity:1; 
stroke-linecap:round; stroke-linejoin:round;">
</g>
<g style="fill:#000000; fill-opacity:0.0; 
stroke:#000000; stroke-width:0; stroke-opacity:1; 
stroke-linecap:round; stroke-linejoin:round;">
</g>
<g style="fill:#000000; fill-opacity:1.0; 
stroke:#000000; stroke-width:0; stroke-opacity:1; 
stroke-linecap:round; stroke-linejoin:round;">
<polyline style="fill-rule:evenodd;"
points="59858,41612
59858,41967
59701,41967
59701,41612
59858,41612
" /> 
<polyline style="fill-rule:evenodd;"
points="59478,41612
59478,41967
59321,41967
59321,41612
59478,41612
" /> 
<polyline style="fill-rule:evenodd;"
points="59098,41612
59098,41967
58941,41967
58941,41612
59098,41612
" /> 
<polyline style="fill-rule:evenodd;"
points="59098,40652
59098,41007
58941,41007
58941,40652
59098,40652
" /> 
<polyline style="fill-rule:evenodd;"
points="59478,40652
59478,41007
59321,41007
59321,40652
59478,40652
" /> 
<polyline style="fill-rule:evenodd;"
points="59858,40652
59858,41007
59701,41007
59701,40652
59858,40652
" /> 
<polyline style="fill-rule:evenodd;"
points="58773,43336
58773,42863
59245,42863
59245,43336
58773,43336
" /> 
<circle cx="59600" cy="43100" r="236.22" /> 
</g>
<g style="fill:#000000; fill-opacity:1.0; 
stroke:#000000; stroke-width:39.3701; stroke-opacity:1; 
stroke-linecap:round; stroke-linejoin:round;">
</g>
<g style="fill:#000000; fill-opacity:1.0; 
stroke:#000000; stroke-width:0; stroke-opacity:1; 
stroke-linecap:round; stroke-linejoin:round;">
<polyline style="fill-rule:evenodd;"
points="60963,40763
61436,40763
61436,41236
60963,41236
60963,40763
" /> 
<circle cx="61200" cy="41590.6" r="236.22" /> 
</g>
<g style="fill:#000000; fill-opacity:1.0; 
stroke:#000000; stroke-width:39.3701; stroke-opacity:1; 
stroke-linecap:round; stroke-linejoin:round;">
</g>
<g style="fill:#000000; fill-opacity:1.0; 
stroke:#000000; stroke-width:0; stroke-opacity:1; 
stroke-linecap:round; stroke-linejoin:round;">
<polyline style="fill-rule:evenodd;"
points="59736,39363
59736,39836
59263,39836
59263,39363
59736,39363
" /> 
<circle cx="58909.4" cy="39600" r="236.22" /> 
</g>
<g style="fill:#000000; fill-opacity:1.0; 
stroke:#000000; stroke-width:39.3701; stroke-opacity:1; 
stroke-linecap:round; stroke-linejoin:round;">
</g>
<g style="fill:#000000; fill-opacity:1.0; 
stroke:#000000; stroke-width:0; stroke-opacity:1; 
stroke-linecap:round; stroke-linejoin:round;">
<polyline style="fill-rule:evenodd;"
points="57509,37490
57509,36309
58690,36309
58690,37490
57509,37490
" /> 
<circle cx="60100" cy="36900" r="590.551" /> 
</g>
<g style="fill:#000000; fill-opacity:1.0; 
stroke:#000000; stroke-width:39.3701; stroke-opacity:1; 
stroke-linecap:round; stroke-linejoin:round;">
</g>
<g style="fill:#000000; fill-opacity:1.0; 
stroke:#000000; stroke-width:0; stroke-opacity:1; 
stroke-linecap:round; stroke-linejoin:round;">
<polyline style="fill-rule:evenodd;"
points="60990,45109
60990,46290
59809,46290
59809,45109
60990,45109
" /> 
<circle cx="58400" cy="45700" r="590.551" /> 
</g>
<g style="fill:#000000; fill-opacity:1.0; 
stroke:#000000; stroke-width:39.3701; stroke-opacity:1; 
stroke-linecap:round; stroke-linejoin:round;">
</g>
<g style="fill:#000000; fill-opacity:1.0; 
stroke:#000000; stroke-width:0; stroke-opacity:1; 
stroke-linecap:round; stroke-linejoin:round;">
<circle cx="58300" cy="41800" r="236.22" /> 
</g>
<g style="fill:#000000; fill-opacity:1.0; 
stroke:#000000; stroke-width:39.3701; stroke-opacity:1; 
stroke-linecap:round; stroke-linejoin:round;">
</g>
<g style="fill:#000000; fill-opacity:1.0; 
stroke:#000000; stroke-width:0; stroke-opacity:1; 
stroke-linecap:round; stroke-linejoin:round;">
<circle cx="61200" cy="42700" r="236.22" /> 
</g>
<g style="fill:#000000; fill-opacity:1.0; 
stroke:#000000; stroke-width:39.3701; stroke-opacity:1; 
stroke-linecap:round; stroke-linejoin:round;">
</g>
<g style="fill:#000000; fill-opacity:1.0; 
stroke:#000000; stroke-width:157.48; stroke-opacity:1; 
stroke-linecap:round; stroke-linejoin:round;">
</g>
<g style="fill:#000000; fill-opacity:0.0; 
stroke:#000000; stroke-width:157.48; stroke-opacity:1; 
stroke-linecap:round; stroke-linejoin:round;">
<path d="M58400 45700
L59009 45090
" />
<path d="M59009 45090
L59009 43100
" />
<path d="M58909 39600
L58909 40719
" />
<path d="M58909 40719
L59020 40830
" />
</g>
<g style="fill:#000000; fill-opacity:0.0; 
stroke:#000000; stroke-width:196.85; stroke-opacity:1; 
stroke-linecap:round; stroke-linejoin:round;">
<path d="M58100 36900
L58100 38790
" />
<path d="M58100 38790
L58909 39600
" />
</g>
<g style="fill:#000000; fill-opacity:0.0; 
stroke:#000000; stroke-width:157.48; stroke-opacity:1; 
stroke-linecap:round; stroke-linejoin:round;">
<path d="M60400 45700
L59613 44913
" />
<path d="M59613 44913
L59613 43113
" />
<path d="M59613 43113
L59600 43100
" />
<path d="M59780 41790
L59780 42920
" />
<path d="M59780 42920
L59600 43100
" />
<path d="M59780 40830
L61030 40830
" />
<path d="M61030 40830
L61200 41000
" />
</g>
<g style="fill:#000000; fill-opacity:0.0; 
stroke:#000000; stroke-width:118.11; stroke-opacity:1; 
stroke-linecap:round; stroke-linejoin:round;">
<path d="M58300 41800
L59010 41800
" />
<path d="M59010 41800
L59020 41790
" />
<path d="M61200 41924
L61200 42700
" />
<path d="M61200 41590
L61200 41924
" />
</g>
<g style="fill:#000000; fill-opacity:0.0; 
stroke:#000000; stroke-width:157.48; stroke-opacity:1; 
stroke-linecap:round; stroke-linejoin:round;">
<path d="M59400 40830
L59400 41790
" />
<path d="M59400 40093
L59400 40830
" />
<path d="M59500 39600
L59500 39993
" />
<path d="M59500 39993
L59400 40093
" />
</g>
<g style="fill:#000000; fill-opacity:0.0; 
stroke:#000000; stroke-width:196.85; stroke-opacity:1; 
stroke-linecap:round; stroke-linejoin:round;">
<path d="M60100 36900
L60100 38916
" />
<path d="M60100 38916
L59500 39516
" />
<path d="M59500 39516
L59500 39600
" />
</g>
<g style="fill:#000000; fill-opacity:1.0; 
stroke:#000000; stroke-width:100; stroke-opacity:1; 
stroke-linecap:round; stroke-linejoin:round;">
<polyline style="fill-rule:evenodd;"
points="61950,46750
57050,46750
57050,46296
57874,46296
57937,46421
58248,46543
58583,46537
58862,46421
58925,46296
58400,45770
57874,46296
57050,46296
57050,45548
57556,45548
57562,45883
57678,46162
57803,46225
58329,45700
58470,45700
58996,46225
59121,46162
59243,45851
59237,45516
59121,45237
58996,45174
58470,45700
58329,45700
57803,45174
57678,45237
57556,45548
57050,45548
57050,45103
57874,45103
58400,45629
58925,45103
58862,44978
58551,44856
58216,44862
57937,44978
57874,45103
57050,45103
57050,43212
58523,43212
58523,43385
58561,43477
58631,43548
58723,43586
58896,43586
58959,43523
58959,43150
58585,43150
58523,43212
57050,43212
57050,42814
58523,42814
58523,42987
58585,43050
58959,43050
58959,42676
58896,42613
58723,42613
58631,42651
58561,42722
58523,42814
57050,42814
57050,41896
57813,41896
57887,42075
58024,42211
58202,42286
58396,42286
58575,42212
58678,42109
58735,42109
58758,42144
58842,42201
58941,42222
59098,42222
59191,42204
59209,42193
59222,42201
59321,42222
59451,42222
59451,42635
59394,42658
59387,42651
59295,42613
59121,42613
59059,42676
59059,43050
59067,43050
59067,43150
59059,43150
59059,43523
59121,43586
59284,43586
59284,44913
59309,45039
59356,45109
59380,45145
59554,45319
59554,46290
59571,46383
59626,46468
59710,46525
59809,46545
60990,46545
61083,46528
61168,46473
61225,46389
61245,46290
61245,45109
61228,45016
61173,44931
61089,44874
60990,44854
60019,44854
59941,44777
59941,43445
60011,43375
60086,43197
60086,43032
60108,42920
60108,41991
60113,41967
60113,41612
60096,41520
60041,41435
59957,41378
59858,41357
59728,41357
59728,41262
59858,41262
59951,41244
60036,41189
60057,41158
60708,41158
60708,41236
60726,41328
60760,41381
60713,41493
60713,41686
60787,41865
60890,41969
60890,42321
60788,42424
60713,42602
60713,42796
60787,42975
60924,43111
61102,43186
61296,43186
61475,43112
61611,42975
61686,42797
61686,42603
61612,42424
61509,42321
61509,41969
61611,41866
61686,41687
61686,41494
61639,41381
61671,41335
61691,41236
61691,40763
61673,40671
61618,40586
61535,40528
61436,40508
61068,40508
61030,40501
60058,40501
60041,40475
59957,40418
59858,40397
59728,40397
59728,40229
59732,40226
59736,40219
59803,40119
59812,40076
59828,40073
59913,40018
59971,39935
59991,39836
59991,39518
60346,39163
60346,39163
60421,39050
60448,38916
60448,37665
60575,37613
60812,37376
60940,37067
60940,36733
60813,36424
60576,36187
60267,36059
59933,36059
59624,36187
59387,36423
59259,36732
59259,37066
59387,37375
59623,37612
59751,37665
59751,38772
59415,39108
59263,39108
59171,39126
59121,39158
58975,39108
58782,39120
58659,39171
58640,39260
58909,39529
58915,39523
58985,39594
58980,39600
58985,39605
58915,39676
58909,39670
58640,39939
58659,40028
58842,40091
59035,40079
59077,40062
59071,40093
59071,40453
59059,40465
59059,40780
59066,40780
59066,40880
59059,40880
59059,41194
59071,41206
59071,41357
58941,41357
58848,41375
58763,41430
58721,41490
58678,41490
58575,41388
58397,41313
58203,41313
58024,41387
57888,41524
57813,41702
57813,41896
57050,41896
57050,40942
58691,40942
58691,41056
58729,41148
58799,41219
58891,41257
58918,41257
58980,41194
58980,40880
58753,40880
58691,40942
57050,40942
57050,40603
58691,40603
58691,40717
58753,40780
58980,40780
58980,40465
58918,40402
58891,40402
58799,40440
58729,40511
58691,40603
57050,40603
57050,39533
58418,39533
58430,39726
58481,39849
58569,39868
58838,39600
58569,39331
58481,39350
58418,39533
57050,39533
57050,37012
57259,37012
57259,37540
57297,37632
57367,37702
57459,37740
57987,37740
58050,37678
58050,36950
58150,36950
58150,37678
58212,37740
58740,37740
58832,37702
58902,37632
58940,37540
58940,37012
58878,36950
58150,36950
58050,36950
57321,36950
57259,37012
57050,37012
57050,36259
57259,36259
57259,36787
57321,36850
58050,36850
58050,36121
58150,36121
58150,36850
58878,36850
58940,36787
58940,36259
58902,36167
58832,36097
58740,36059
58212,36059
58150,36121
58050,36121
57987,36059
57459,36059
57367,36097
57297,36167
57259,36259
57050,36259
57050,35650
61950,35650
61950,46750
" /> 
</g>
<g style="fill:#FFFFFF; fill-opacity:1.0; 
stroke:#FFFFFF; stroke-width:100; stroke-opacity:1; 
stroke-linecap:round; stroke-linejoin:round;">
</g>
<g style="fill:#FFFFFF; fill-opacity:1.0; 
stroke:#FFFFFF; stroke-width:0; stroke-opacity:1; 
stroke-linecap:round; stroke-linejoin:round;">
<circle cx="58300" cy="41800" r="157.48" /> 
</g>
<g style="fill:#FFFFFF; fill-opacity:1.0; 
stroke:#FFFFFF; stroke-width:39.3701; stroke-opacity:1; 
stroke-linecap:round; stroke-linejoin:round;">
</g>
<g style="fill:#FFFFFF; fill-opacity:1.0; 
stroke:#FFFFFF; stroke-width:0; stroke-opacity:1; 
stroke-linecap:round; stroke-linejoin:round;">
<circle cx="61200" cy="42700" r="157.48" /> 
</g>
<g style="fill:#FFFFFF; fill-opacity:1.0; 
stroke:#FFFFFF; stroke-width:39.3701; stroke-opacity:1; 
stroke-linecap:round; stroke-linejoin:round;">
</g>
<g style="fill:#FFFFFF; fill-opacity:1.0; 
stroke:#FFFFFF; stroke-width:0; stroke-opacity:1; 
stroke-linecap:round; stroke-linejoin:round;">
<circle cx="59009.4" cy="43100" r="118.11" /> 
</g>
<g style="fill:#FFFFFF; fill-opacity:1.0; 
stroke:#FFFFFF; stroke-width:39.3701; stroke-opacity:1; 
stroke-linecap:round; stroke-linejoin:round;">
</g>
<g style="fill:#FFFFFF; fill-opacity:1.0; 
stroke:#FFFFFF; stroke-width:0; stroke-opacity:1; 
stroke-linecap:round; stroke-linejoin:round;">
<circle cx="59600" cy="43100" r="118.11" /> 
</g>
<g style="fill:#FFFFFF; fill-opacity:1.0; 
stroke:#FFFFFF; stroke-width:39.3701; stroke-opacity:1; 
stroke-linecap:round; stroke-linejoin:round;">
</g>
<g style="fill:#FFFFFF; fill-opacity:1.0; 
stroke:#FFFFFF; stroke-width:0; stroke-opacity:1; 
stroke-linecap:round; stroke-linejoin:round;">
<circle cx="61200" cy="41000" r="118.11" /> 
</g>
<g style="fill:#FFFFFF; fill-opacity:1.0; 
stroke:#FFFFFF; stroke-width:39.3701; stroke-opacity:1; 
stroke-linecap:round; stroke-linejoin:round;">
</g>
<g style="fill:#FFFFFF; fill-opacity:1.0; 
stroke:#FFFFFF; stroke-width:0; stroke-opacity:1; 
stroke-linecap:round; stroke-linejoin:round;">
<circle cx="61200" cy="41590.6" r="118.11" /> 
</g>
<g style="fill:#FFFFFF; fill-opacity:1.0; 
stroke:#FFFFFF; stroke-width:39.3701; stroke-opacity:1; 
stroke-linecap:round; stroke-linejoin:round;">
</g>
<g style="fill:#FFFFFF; fill-opacity:1.0; 
stroke:#FFFFFF; stroke-width:0; stroke-opacity:1; 
stroke-linecap:round; stroke-linejoin:round;">
<circle cx="59500" cy="39600" r="118.11" /> 
</g>
<g style="fill:#FFFFFF; fill-opacity:1.0; 
stroke:#FFFFFF; stroke-width:39.3701; stroke-opacity:1; 
stroke-linecap:round; stroke-linejoin:round;">
</g>
<g style="fill:#FFFFFF; fill-opacity:1.0; 
stroke:#FFFFFF; stroke-width:0; stroke-opacity:1; 
stroke-linecap:round; stroke-linejoin:round;">
<circle cx="58909.4" cy="39600" r="118.11" /> 
</g>
<g style="fill:#FFFFFF; fill-opacity:1.0; 
stroke:#FFFFFF; stroke-width:39.3701; stroke-opacity:1; 
stroke-linecap:round; stroke-linejoin:round;">
</g>
<g style="fill:#FFFFFF; fill-opacity:1.0; 
stroke:#FFFFFF; stroke-width:0; stroke-opacity:1; 
stroke-linecap:round; stroke-linejoin:round;">
<circle cx="58100" cy="36900" r="299.213" /> 
</g>
<g style="fill:#FFFFFF; fill-opacity:1.0; 
stroke:#FFFFFF; stroke-width:39.3701; stroke-opacity:1; 
stroke-linecap:round; stroke-linejoin:round;">
</g>
<g style="fill:#FFFFFF; fill-opacity:1.0; 
stroke:#FFFFFF; stroke-width:0; stroke-opacity:1; 
stroke-linecap:round; stroke-linejoin:round;">
<circle cx="60100" cy="36900" r="299.213" /> 
</g>
<g style="fill:#FFFFFF; fill-opacity:1.0; 
stroke:#FFFFFF; stroke-width:39.3701; stroke-opacity:1; 
stroke-linecap:round; stroke-linejoin:round;">
</g>
<g style="fill:#FFFFFF; fill-opacity:1.0; 
stroke:#FFFFFF; stroke-width:0; stroke-opacity:1; 
stroke-linecap:round; stroke-linejoin:round;">
<circle cx="60400" cy="45700" r="299.213" /> 
</g>
<g style="fill:#FFFFFF; fill-opacity:1.0; 
stroke:#FFFFFF; stroke-width:39.3701; stroke-opacity:1; 
stroke-linecap:round; stroke-linejoin:round;">
</g>
<g style="fill:#FFFFFF; fill-opacity:1.0; 
stroke:#FFFFFF; stroke-width:0; stroke-opacity:1; 
stroke-linecap:round; stroke-linejoin:round;">
<circle cx="58400" cy="45700" r="299.213" /> 
</g>
<g style="fill:#FFFFFF; fill-opacity:1.0; 
stroke:#FFFFFF; stroke-width:39.3701; stroke-opacity:1; 
stroke-linecap:round; stroke-linejoin:round;">
</g>
<g style="fill:#000000; fill-opacity:1.0; 
stroke:#000000; stroke-width:39.3701; stroke-opacity:1; 
stroke-linecap:round; stroke-linejoin:round;">
</g> 
</svg>
