*
G04 Mass Parameters ***
*
G04 Image ***
*
%INF:\VINAY_SHARED\VINAY\AGRO - IOT SENSOR PROJECT\PCB_LWS-V1\PCB_LWS-V1.BOT*%
%ICAS*%
%MOIN*%
%IPPOS*%
%ASAXBY*%
G74*%FSLAN2X34Y34*%
*
G04 Aperture Definitions ***
*
%ADD10O,0.0600X0.0800*%
%ADD11R,0.0600X0.0800*%
%ADD12O,0.0800X0.0600*%
%ADD13R,0.0800X0.0600*%
%ADD14O,0.0900X0.0660*%
%ADD15R,0.0900X0.0660*%
%ADD16C,0.1181*%
%ADD17O,0.0660X0.0800*%
%ADD18R,0.0660X0.0800*%
%ADD19C,0.0660*%
%ADD20R,0.0500X0.1000*%
%ADD21R,0.0600X0.0600*%
%ADD22O,0.0201X0.0550*%
%ADD23O,0.0197X0.0550*%
%ADD24R,0.0200X0.0550*%
%ADD25O,0.0800X0.0200*%
%ADD26R,0.0800X0.0200*%
%ADD27C,0.0080*%
%ADD28C,0.0100*%
%ADD29C,0.0150*%
%ADD30C,0.0250*%
*
G04 Plot Data ***
*
G54D27*
G01X-0006400Y0014900D02*
Y0012500D01*
X-0004300D01*
X0006000D02*
X0008700D01*
Y0014650D01*
Y0018650D02*
Y0022350D01*
X0007150D01*
X-0004900D02*
X-0006400D01*
Y0020550D01*
G54D28*
G01X-0009742Y0016400D02*
X-0009242Y0016150D01*
Y0016483D01*
X-0009742Y0016975D02*
X-0009242Y0016725D01*
Y0017058D01*
X-0009742Y0017383D02*
Y0017300D01*
X-0009658D01*
Y0017383D01*
X-0009742D01*
X-0009575Y0017708D02*
Y0018042D01*
X-0009242Y0017875D01*
Y0017792D01*
X-0009742D01*
Y0018283D02*
Y0018617D01*
X-0009408Y0018283D01*
X-0009325D01*
X-0009242Y0018325D01*
Y0018575D01*
X-0009325Y0018617D01*
X0002092Y0025992D02*
X0002133Y0025908D01*
X0002383D01*
X0002425Y0025992D01*
Y0026158D01*
X0002342Y0026242D01*
X0002092D01*
Y0026408D01*
X0002425D01*
X0001517Y0025992D02*
X0001600Y0025908D01*
X0001767D01*
X0001850Y0025992D01*
Y0026075D01*
X0001683Y0026242D01*
X0001850Y0026408D01*
X0001517D01*
X0001192Y0025908D02*
X0001275D01*
Y0025992D01*
X0001192D01*
Y0025908D01*
X0000825Y0026158D02*
X0000867Y0026242D01*
Y0026325D01*
X0000825Y0026408D01*
X0000575D01*
X0000533Y0026325D01*
Y0026242D01*
X0000575Y0026158D01*
X0000825D01*
X0000867Y0026075D01*
Y0025992D01*
X0000825Y0025908D01*
X0000575D01*
X0000533Y0025992D01*
Y0026075D01*
X0000575Y0026158D01*
X-0000042Y0025992D02*
X0000042Y0025908D01*
X0000208D01*
X0000292Y0025992D01*
Y0026075D01*
X0000125Y0026242D01*
X0000292Y0026408D01*
X-0000042D01*
X-0010575Y0012550D02*
X-0008325D01*
X-0009450Y0015629D02*
Y0012550D01*
X-0009262Y0013112D02*
X-0009450Y0012550D01*
X-0009637Y0013112D01*
X-0010575Y0022300D02*
X-0008325D01*
X-0009450Y0019221D02*
Y0022300D01*
X-0009637Y0021737D02*
X-0009450Y0022300D01*
X-0009262Y0021737D01*
X0008700Y0025075D02*
Y0027325D01*
X0002946Y0026200D02*
X0008700D01*
X0008137Y0026387D02*
X0008700Y0026200D01*
X0008137Y0026012D01*
X-0006400Y0025075D02*
Y0027325D01*
X-0000646Y0026200D02*
X-0006400D01*
X-0005837Y0026012D02*
X-0006400Y0026200D01*
X-0005837Y0026387D01*
G54D29*
G01X-0004250Y0018700D02*
X-0004850Y0019300D01*
Y0020100D01*
X-0004250Y0018700D02*
X-0004400Y0018850D01*
X-0002050D01*
X-0002000Y0018900D01*
Y0019200D01*
X-0001200D02*
Y0018650D01*
X-0001300Y0018550D01*
X-0001850D01*
X-0002000Y0018700D01*
Y0019200D01*
X0002650Y0016000D02*
X0002050D01*
X0001650Y0015600D01*
Y0013700D01*
X0001300Y0013350D01*
X0000000D01*
X-0000500Y0013850D01*
Y0015150D01*
X-0000900Y0015550D01*
X-0001200D01*
X-0001450Y0015800D01*
Y0017300D01*
X-0001250Y0017500D01*
X0000400D01*
X-0001600Y0019200D02*
Y0021100D01*
X-0001250Y0021450D01*
X-0000800D01*
X0004800Y0020300D02*
X0003250D01*
X0003000Y0020550D01*
Y0020600D01*
X-0001600Y0019200D02*
Y0019800D01*
X-0002700D01*
X-0003000Y0020100D01*
X-0003150D01*
X-0002700Y0015100D02*
X-0003350Y0015750D01*
Y0016450D01*
X-0003600Y0016700D01*
X-0004250D01*
X-0005150D01*
X-0006000Y0017550D01*
Y0020700D01*
X-0005400Y0021300D01*
X-0004000D01*
X-0003750Y0021050D01*
Y0020700D01*
X-0003150Y0020100D01*
X0003000Y0020600D02*
Y0021200D01*
X0002750Y0021450D01*
X-0000800D01*
X0002850Y0013650D02*
X0003500Y0014300D01*
X0004800D01*
X0005050Y0014550D01*
Y0016750D01*
X0004800Y0017000D01*
X0004400D01*
X0004800Y0018350D02*
X0004400Y0017950D01*
Y0017000D01*
X0002850Y0014950D02*
X0003500D01*
Y0016150D01*
X0003150Y0016500D01*
X0002650D01*
X-0002700Y0013800D02*
X-0003050D01*
X-0004250Y0015000D01*
Y0015700D01*
X0002900Y0018900D02*
X0003200Y0018600D01*
Y0017700D01*
X0003000Y0017500D01*
X0002650D01*
X0001000Y0020600D02*
Y0020050D01*
X-0001150D01*
X-0001200Y0020100D01*
Y0020350D01*
X0003000Y0020600D02*
X0002900Y0020500D01*
Y0018900D01*
X0001200D02*
X0001000Y0019100D01*
Y0020600D01*
X0000400Y0017500D02*
X0000650D01*
X0001200Y0018050D01*
Y0018900D01*
X0000400Y0016500D02*
X0001450D01*
X0001950Y0017000D01*
X0002650D01*
X-0002700Y0015100D02*
X-0002150D01*
X-0001550Y0014500D01*
X0003200Y0020400D02*
Y0020350D01*
X0003000Y0020550D01*
Y0020600D01*
X0002000D02*
X0001000D01*
X0004400Y0017000D02*
X0002650D01*
X-0002150Y0016600D02*
Y0017000D01*
X-0002850Y0017700D01*
X-0004250D01*
X0006000Y0013650D02*
X0004150D01*
X0000400Y0014500D02*
X0000625Y0014725D01*
Y0015875D01*
X0000500Y0016000D01*
X0000400D01*
Y0017000D02*
X-0000450D01*
X-0000850Y0016600D01*
X-0002000Y0020350D02*
Y0021100D01*
X-0002350Y0021450D01*
X-0002750D01*
X-0004600Y0018850D02*
X-0004400D01*
X-0004250Y0018700D01*
X0004150Y0014950D02*
X0002850D01*
G54D30*
G01X0006350Y0017000D02*
Y0017900D01*
X0006700Y0018250D01*
X0007800D01*
Y0015750D02*
X0007650Y0015600D01*
X0006000D01*
G54D10*
X0000400Y0014500D03*
X-0002750Y0021450D03*
X0004400Y0017000D03*
G54D11*
X-0001550Y0014500D03*
X-0000800Y0021450D03*
X0006350Y0017000D03*
G54D12*
X0004800Y0018350D03*
X0006000Y0013650D03*
G54D13*
X0004800Y0020300D03*
X0006000Y0015600D03*
G54D14*
X-0004250Y0017700D03*
Y0016700D03*
Y0015700D03*
G54D15*
Y0018700D03*
G54D16*
X0007550Y0021250D03*
X-0005300Y0013600D03*
X0007600D03*
G54D17*
X0002000Y0020600D03*
X0001000D03*
G54D18*
X0003000D03*
G54D19*
X0007800Y0015750D03*
Y0018250D03*
G54D20*
X0001200Y0018900D03*
X0002900D03*
X-0004850Y0020100D03*
X-0003150D03*
G54D21*
X-0002700Y0015100D03*
Y0013800D03*
X-0000850Y0016600D03*
X-0002150D03*
X0004150Y0013650D03*
Y0014950D03*
X0002850D03*
Y0013650D03*
G54D22*
X-0001200Y0020350D03*
G54D23*
X-0001600Y0019200D03*
X-0002000D03*
Y0020350D03*
G54D24*
X-0001200Y0019200D03*
G54D25*
X0002650Y0017000D03*
Y0016500D03*
Y0016000D03*
X0000400D03*
Y0016500D03*
Y0017000D03*
Y0017500D03*
G54D26*
X0002650D03*
M02*
