*
G04 Mass Parameters ***
*
G04 Image ***
*
%INF:\VINAY_SHARED\VINAY\AGRO - IOT SENSOR PROJECT\PCB_LWS-V1\PCB_LWS-V1.AST*%
%ICAS*%
%MOIN*%
%IPPOS*%
%ASAXBY*%
G74*%FSLAN2X34Y34*%
*
G04 Aperture Definitions ***
*
%ADD10O,0.0600X0.0800*%
%ADD11R,0.0600X0.0800*%
%ADD12O,0.0800X0.0600*%
%ADD13R,0.0800X0.0600*%
%ADD14O,0.0900X0.0660*%
%ADD15R,0.0900X0.0660*%
%ADD16C,0.1181*%
%ADD17O,0.0660X0.0800*%
%ADD18R,0.0660X0.0800*%
%ADD19C,0.0660*%
%ADD20R,0.0500X0.1000*%
%ADD21R,0.0600X0.0600*%
%ADD22O,0.0201X0.0550*%
%ADD23O,0.0197X0.0550*%
%ADD24R,0.0200X0.0550*%
%ADD25O,0.0800X0.0200*%
%ADD26R,0.0800X0.0200*%
%ADD27C,0.0080*%
%ADD28C,0.0100*%
%ADD29C,0.0150*%
%ADD30C,0.0250*%
%ADD31O,0.0720X0.0920*%
%ADD32R,0.0720X0.0920*%
%ADD33O,0.0920X0.0720*%
%ADD34R,0.0920X0.0720*%
%ADD35O,0.1020X0.0780*%
%ADD36R,0.1020X0.0780*%
%ADD37O,0.0780X0.0920*%
%ADD38R,0.0780X0.0920*%
%ADD39C,0.0780*%
%ADD40C,0.0520*%
%ADD41R,0.0520X0.0520*%
*
G04 Plot Data ***
*
G54D27*
G01X0001909Y0019506D02*
X0002132D01*
X0002021Y0019284D01*
X0001965D01*
Y0019617D01*
X0002403Y0019451D02*
X0002319Y0019617D01*
X0002542Y0019451D02*
X0002375D01*
X0002319Y0019395D01*
Y0019339D01*
X0002375Y0019284D01*
X0002542D01*
Y0019617D01*
X0001159Y0020267D02*
X0001326Y0020101D01*
X0001159Y0019934D01*
X0001381D02*
Y0020267D01*
X0001708D02*
X0001763Y0020212D01*
X0001791Y0020156D01*
Y0020045D01*
X0001763Y0019989D01*
X0001708Y0019934D01*
X0001652D01*
X0001597Y0019989D01*
X0001569Y0020045D01*
Y0020156D01*
X0001597Y0020212D01*
X0001652Y0020267D01*
X0001708D01*
X0002118D02*
X0002173Y0020212D01*
X0002201Y0020156D01*
Y0020045D01*
X0002173Y0019989D01*
X0002118Y0019934D01*
X0002062D01*
X0002007Y0019989D01*
X0001979Y0020045D01*
Y0020156D01*
X0002007Y0020212D01*
X0002062Y0020267D01*
X0002118D01*
X0002389D02*
X0002500D01*
X0002444D02*
Y0019934D01*
X0002500Y0019989D01*
X-0001552Y0015183D02*
X-0001385Y0015516D01*
X-0001608D01*
X-0001795Y0015238D02*
X-0001823Y0015183D01*
X-0001990D01*
X-0002018Y0015238D01*
Y0015460D01*
X-0001990Y0015516D01*
X-0001823D01*
X-0001795Y0015460D01*
X-0000146Y0013618D02*
X-0000312D01*
Y0013451D02*
Y0013785D01*
X-0000090D01*
X-0000528Y0013674D02*
Y0013451D01*
X-0000500D02*
X-0000695D01*
X-0000722Y0013507D01*
Y0013674D01*
X-0000910Y0013451D02*
X-0001021D01*
X-0000966D02*
Y0013785D01*
X-0001021Y0013729D01*
X-0001403Y0013451D02*
X-0001459Y0013507D01*
X-0001487Y0013563D01*
Y0013674D01*
X-0001459Y0013729D01*
X-0001403Y0013785D01*
X-0001348D01*
X-0001292Y0013729D01*
X-0001264Y0013674D01*
Y0013563D01*
X-0001292Y0013507D01*
X-0001348Y0013451D01*
X-0001403D01*
X-0001730D02*
X-0001674D01*
Y0013507D01*
X-0001730D01*
Y0013451D01*
X-0002112D02*
X-0002168Y0013507D01*
X-0002196Y0013563D01*
Y0013674D01*
X-0002168Y0013729D01*
X-0002112Y0013785D01*
X-0002057D01*
X-0002001Y0013729D01*
X-0001973Y0013674D01*
Y0013563D01*
X-0002001Y0013507D01*
X-0002057Y0013451D01*
X-0002112D01*
X-0000742Y0020712D02*
X-0000798Y0020767D01*
X-0000909D01*
X-0000964Y0020712D01*
Y0020656D01*
X-0000853Y0020545D01*
X-0000964Y0020434D01*
X-0000742D01*
X-0000554Y0020712D02*
X-0000527Y0020767D01*
X-0000360D01*
X-0000332Y0020712D01*
Y0020489D01*
X-0000360Y0020434D01*
X-0000527D01*
X-0000554Y0020489D01*
X-0001933Y0022332D02*
X-0001766D01*
Y0022498D02*
Y0022165D01*
X-0001989D01*
X-0001384Y0022610D02*
Y0022276D01*
X-0001551D01*
X-0001579Y0022332D01*
Y0022443D01*
X-0001551Y0022498D01*
X-0001384D01*
X-0001058D02*
X-0001002Y0022443D01*
X-0000974Y0022387D01*
Y0022276D01*
X-0001002Y0022221D01*
X-0001058Y0022165D01*
X-0001113D01*
X-0001169Y0022221D01*
X-0001197Y0022276D01*
Y0022387D01*
X-0001169Y0022443D01*
X-0001113Y0022498D01*
X-0001058D01*
X-0000620D02*
X-0000787Y0022165D01*
X-0000564D01*
X-0000377Y0022387D02*
X-0000154D01*
X-0000265Y0022165D01*
X-0000321D01*
Y0022498D01*
X0006794Y0015435D02*
Y0015658D01*
X0007016Y0015547D01*
Y0015491D01*
X0006683D01*
X0006738Y0015845D02*
X0006683Y0015873D01*
Y0016040D01*
X0006738Y0016068D01*
X0006960D01*
X0007016Y0016040D01*
Y0015873D01*
X0006960Y0015845D01*
X0005118Y0014550D02*
Y0014717D01*
X0004951D02*
X0005285D01*
Y0014494D01*
X0005174Y0014932D02*
X0004951D01*
Y0014904D02*
Y0015099D01*
X0005007Y0015127D01*
X0005174D01*
X0004951Y0015481D02*
X0005285Y0015314D01*
Y0015537D01*
X0004951Y0015780D02*
Y0015724D01*
X0005007D01*
Y0015780D01*
X0004951D01*
X0005063Y0016023D02*
Y0016246D01*
X0005285Y0016134D01*
Y0016079D01*
X0004951D01*
X0006185Y0016317D02*
X0006408D01*
X0006185Y0016095D01*
Y0016039D01*
X0006213Y0015984D01*
X0006380D01*
X0006408Y0016039D01*
X0006595Y0016262D02*
X0006623Y0016317D01*
X0006790D01*
X0006818Y0016262D01*
Y0016039D01*
X0006790Y0015984D01*
X0006623D01*
X0006595Y0016039D01*
X0005300Y0017882D02*
X0005467D01*
Y0018048D02*
Y0017715D01*
X0005244D01*
X0005682Y0017826D02*
Y0018048D01*
X0005654D02*
X0005849D01*
X0005877Y0017993D01*
Y0017826D01*
X0006231Y0018048D02*
X0006064Y0017715D01*
X0006287D01*
X0006530Y0018048D02*
X0006474D01*
Y0017993D01*
X0006530D01*
Y0018048D01*
X0006773Y0017937D02*
X0006996D01*
X0006884Y0017715D01*
X0006829D01*
Y0018048D01*
X0005538Y0020358D02*
X0005483Y0020330D01*
Y0020163D01*
X0005538Y0020135D01*
X0005649D01*
X0005705Y0020191D01*
Y0020358D01*
X0005816D01*
Y0020135D01*
X0005538Y0020545D02*
X0005483Y0020573D01*
Y0020740D01*
X0005538Y0020768D01*
X0005760D01*
X0005816Y0020740D01*
Y0020573D01*
X0005760Y0020545D01*
X0003918Y0019306D02*
Y0019472D01*
X0003751D02*
X0004085D01*
Y0019250D01*
X0003974Y0019688D02*
X0003751D01*
Y0019660D02*
Y0019855D01*
X0003807Y0019882D01*
X0003974D01*
X0003751Y0020070D02*
Y0020181D01*
Y0020126D02*
X0004085D01*
X0004029Y0020181D01*
X0003751Y0020480D02*
Y0020424D01*
X0003807D01*
Y0020480D01*
X0003751D01*
Y0020862D02*
X0003807Y0020918D01*
X0003863Y0020946D01*
X0003974D01*
X0004029Y0020918D01*
X0004085Y0020862D01*
Y0020807D01*
X0004029Y0020751D01*
X0003974Y0020723D01*
X0003863D01*
X0003807Y0020751D01*
X0003751Y0020807D01*
Y0020862D01*
X-0000650Y0014875D02*
Y0015000D01*
X-0002150D01*
Y0014875D01*
Y0014125D02*
Y0014000D01*
X-0000650D01*
Y0014125D01*
X-0001700Y0021075D02*
Y0020950D01*
X-0000200D01*
Y0021075D01*
Y0021825D02*
Y0021950D01*
X-0001700D01*
Y0021825D01*
X0006375Y0014700D02*
X0006500D01*
Y0016200D01*
X0006375D01*
X0005625D02*
X0005500D01*
Y0014700D01*
X0005625D01*
X0005450Y0016625D02*
Y0016500D01*
X0006950D01*
Y0016625D01*
Y0017375D02*
Y0017500D01*
X0005450D01*
Y0017375D01*
X0005175Y0019400D02*
X0005300D01*
Y0020900D01*
X0005175D01*
X0004425D02*
X0004300D01*
Y0019400D01*
X0004425D01*
X0008700Y0022350D02*
Y0012500D01*
X-0006400D01*
Y0022350D01*
X0008700D01*
G54D28*
G01X-0005306Y0014911D02*
X-0005217Y0014822D01*
X-0005039D01*
X-0004950Y0014911D01*
Y0015000D01*
X-0005128Y0015178D01*
X-0004950Y0015355D01*
X-0005306D01*
X-0005550Y0015089D02*
X-0005906D01*
X-0005550Y0014822D02*
Y0015355D01*
X-0005906Y0014822D02*
Y0015355D01*
X-0006150Y0014822D02*
Y0015355D01*
X-0006239Y0015267D01*
X-0006328Y0015089D01*
X-0006417Y0015267D01*
X-0006506Y0015355D01*
Y0014822D01*
X0008811Y0019222D02*
X0008633D01*
X0008722D02*
Y0019755D01*
X0008633Y0019667D01*
X0007944Y0019489D02*
X0008211D01*
X0008300Y0019578D01*
Y0019667D01*
X0008211Y0019755D01*
X0007944D01*
Y0019222D01*
X0007522D02*
Y0019755D01*
X0007700D02*
X0007344D01*
X0007861Y0014822D02*
X0007683D01*
X0007772D02*
Y0015355D01*
X0007683Y0015267D01*
X0007350Y0015089D02*
X0006994D01*
X0007350Y0014822D02*
Y0015355D01*
X0006994Y0014822D02*
Y0015355D01*
X0006750Y0014822D02*
Y0015355D01*
X0006661Y0015267D01*
X0006572Y0015089D01*
X0006483Y0015267D01*
X0006394Y0015355D01*
Y0014822D01*
X0007900Y0022650D02*
X0007544D01*
X0007722Y0023005D01*
X0007811D01*
Y0022472D01*
X0007300Y0022739D02*
X0006944D01*
X0007300Y0022472D02*
Y0023005D01*
X0006944Y0022472D02*
Y0023005D01*
X0006700Y0022472D02*
Y0023005D01*
X0006611Y0022917D01*
X0006522Y0022739D01*
X0006433Y0022917D01*
X0006344Y0023005D01*
Y0022472D01*
X0008900Y0016722D02*
X0008544D01*
X0008900Y0017078D01*
Y0017167D01*
X0008855Y0017255D01*
X0008589D01*
X0008544Y0017167D01*
X0007944Y0016989D02*
X0008211D01*
X0008300Y0017078D01*
Y0017167D01*
X0008211Y0017255D01*
X0007944D01*
Y0016722D01*
X0007522D02*
Y0017255D01*
X0007700D02*
X0007344D01*
X-0001625Y0014112D02*
Y0014446D01*
X-0001292Y0014279D01*
Y0014196D01*
X-0001792D01*
X-0001542Y0015575D02*
X-0001792Y0015450D01*
X-0001542Y0015783D02*
Y0015533D01*
X-0001458Y0015450D01*
X-0001375D01*
X-0001292Y0015533D01*
Y0015783D01*
X-0001792D01*
X-0001542Y0016108D02*
Y0016358D01*
X-0001792Y0016025D02*
Y0016358D01*
X-0001292D01*
Y0016025D01*
X-0001792Y0016892D02*
X-0001292D01*
X-0001792Y0016933D02*
Y0016683D01*
X-0001625Y0016600D01*
X-0001458D01*
X-0001292Y0016683D01*
Y0016933D01*
X-0001625Y0017175D02*
Y0017508D01*
X-0001792Y0017175D02*
X-0001542D01*
X-0001292Y0017300D01*
Y0017383D01*
X-0001542Y0017508D01*
X-0001792D01*
X-0001542Y0017833D02*
Y0018083D01*
X-0001792Y0017750D02*
Y0018083D01*
X-0001292D01*
Y0017750D01*
X-0001542Y0018325D02*
Y0018658D01*
X-0001792Y0018325D02*
X-0001292D01*
X-0001792Y0018658D02*
X-0001292D01*
X-0000667Y0017875D02*
Y0018042D01*
Y0017958D02*
X-0000167D01*
X-0000250Y0018042D01*
X-0000500Y0018658D02*
X-0000583D01*
X-0000667Y0018617D01*
Y0018450D01*
X-0000583Y0018408D01*
X-0000167D01*
Y0018367D02*
Y0018533D01*
G54D40*
X0002000Y0020600D03*
X0001000D03*
G54D41*
X0003000D03*
M02*
