%
T3C0.0394F200S100
X007800Y015750
X007800Y018250
T1C0.0315F200S100
X-002750Y021450
X-001550Y014500
X-000800Y021450
X000400Y014500
X001000Y020600
X002000Y020600
X003000Y020600
X004400Y017000
X004800Y018350
X004800Y020300
X006000Y013650
X006000Y015600
X006350Y017000
T2C0.0390F200S100
X-004250Y015700
X-004250Y016700
X-004250Y017700
X-004250Y018700
T4C0.1181F200S100
X-005300Y013600
X007550Y021250
X007600Y013600
M30
